<svg class="tile-svg" xmlns="http://www.w3.org/2000/svg" viewBox="0 0 800 400">
    <g id="c">
        <path
            d="M94.12,399.78c-29.54,0-59.07-.23-88.61.22C.44,400.07,0,398.02,0,392.26c.14-93.43.1-186.86.1-280.29,1.46-15.57,4.38-30.25,14.31-40.56,5.16-6.52,9.92-13.55,14.83-20.39,1.78-2.48,1.98-5.71,1.96-8.9-.1-13.04,1.63-25.65,4.88-37.93.52-1.18,1.21-2.19,1.9-3.19h79.65c2.49,4.82.06,8.28-2.12,11.33-6.5,9.07-11.26,19.61-14.87,31.01-1.98,6.24-1.44,13.72-5.09,19.25-6.02,5.48-8.24,15.66-14.35,20.9-16.11,13.78-23.45,37.27-35.22,55.83-3.79,5.98-4.83,14.35-5.99,21.67-2.04,12.94-5.85,23.87-13.21,32.68-1.79,2.15-3.34,4.58-3.75,7.92-4.95,11.3-10.93,21.89-12.71,35.29-.53,3.99-1.01,7.89-.77,11.89.57,9.26,1.46,9.87,7.66,5.64,2.14-1.46,4.28-2.9,6.68-.85,1.8,2.94,1.29,6.22.07,8.91-2.43,5.4-1.05,9.61,1.34,14.19,3.82,7.33,6.93,15.26,9.9,23.26,1.26,3.4,2.51,6.84.3,10.44-4.11,2.65-7.52-.93-11.16-2.31-4.77-1.81-6.69-.54-6.9,6.01-.46,14.69-.49,29.39,1.4,43.98,1.58,12.12,8.38,17.74,15.85,22.06,4.27,2.47,6.25-2.46,7.77-6.69,1.81-5.06,3.47-10.1,8.4-10.79,13.87,5.12,27.57,10.87,38.46,24.19,2.69,3.3,6.29,6.65,4.8,12.97Z"
            style="fill:#362f5b; stroke-width:0px;" />
        <path
            d="M94.12,399.78c-4.9-11.56-14.41-16.18-21.39-24.64-3.11-3.78-8.92-.5-13.02-4.15-2.69-2.39-5.79-3.97-8.71-5.92-10.33-3.02-13.89-12.63-9.4-25.39,7.16-5.5,14.56-1.23,21.6-.05,33.97,5.66,67.87,12.02,101.92,16.81,21.98,3.09,43.86,7.4,65.82,10.76,10.11,1.55,20.24,3.01,30.41,3.67,11.95-2.55,23.76.93,35.63,1.61,16,.91,31.97,2.85,48,2.9,2.28,0,4.16-1.46,6.19-2.42,14.24,7.67,29.48,5.95,44.22,6.82,19.93,1.17,39.89,3.22,59.9,2.32,13.22-.59,26.38,3.01,39.63,1.03,5.74.77,11.48,2.05,17.25.25,15.14-1.96,30.33-1.11,45.49-1.4,4.51-.08,9.03,2.41,13.52-.06.79-.28,1.58-.36,2.39-.33,6.63,2.61,13.13.73,19.65-.99,8.89-.21,17.77-.94,26.64.72,3.2.6,6.52.74,9.5-1.65,9.14-1.62,18.29-1.94,27.41.21,3.75,3.76,1.1,6.23-1.09,8.58-4.71,5.05-10.35,7.87-15.73,11.33H94.12Z"
            style="fill:#544a63; stroke-width:0px;" />
        <path
            d="M203.8,1.01h84.88c1.4,4.54-1.01,7.17-3.09,9.46-14.51,15.94-27.88,33.65-43.1,48.46-1.47,1.44-2.26,3.43-3.32,5.22-18.24,22.46-38.31,42.05-56.66,64.38-6.99,8.51-10.38,18.88-12.58,30.36-2.19,11.42-5.3,22.45-7.72,33.77-.89,4.17-2.07,8.22-5.07,10.7-2.71,1.51-5.5.73-7.29-1.72-6.61-9.09-13.29-5.58-20.09-.9-2.5,1.72-4.86,3.94-7.91,2.5-1.83-2.5-3.58-2.81-6.2-1.25-7.46,4.43-15.28,7.72-22.36,13.31-2.03,1.6-4.28,2.89-6.74,1.19-2.23-1.88-2.57-5.09-3.41-8.05-2.89-10.2-3.94-21.2-7.84-30.97-1.22-3.05-1.62-6.59-.16-9.94,7.69-3.95,10.98-13.55,15.01-21.78,3.41-6.97,7.1-13.74,10.24-20.95,2.89-6.64,7.34-9.78,12.98-9.43,9.23.57,18.65-2.45,27.67,2.37,2.51,2.49,1.15,6.42,2.09,10.25,7.73-6.13,9.58-17.63,14.49-26,4.64-14.14,12.58-25.42,19.27-37.66,7.75-14.16,13.14-29.65,18.41-45.39,2.18-6.5,3.57-13.71,8.5-17.92Z"
            style="fill:#1c1845; stroke-width:0px;" />
        <path
            d="M237.76,61.7c11.74-13.86,23.48-27.71,35.21-41.59,5.3-6.27,11.26-11.59,15.71-19.1h107.07c3.94,5.16,3.28,12.12,4.02,18.49.39,3.38.08,6.89.78,10.25,2.01,9.68,5.8,13.67,13.53,14.17,3.67.24,7.35-.03,11.02.33,3.8.37,6.72,2.18,7.2,7.91-.18,3.77-2.08,6.18-3.91,8.65-7.12,9.64-14.61,18.82-21.01,29.37-1.52,2.5-3.39,4.83-5.74,5.46-10.96,2.94-21.87,6.8-33.24,5.12-6.45-5.98-11.24-14.29-16.26-22.04-9.15-14.12-20.92-23.97-31.2-36.17-9.44-11.2-18.67-9.94-29.15-3.78-14.03,8.24-27.78,17.46-42.64,23.01-3.81,1.42-7.61,5.19-11.39-.08Z"
            style="fill:#313363; stroke-width:0px;" />
        <path
            d="M799.24,167.45v88.42c-19.69,21.17-30.92,49.67-39.34,80.51-3.77,13.82-8.73,26.38-18.28,34.72-3.2,2.8-6.35,6.53-10.63,3.08-1.86-5.49,1.07-8.19,3.85-10.32,6.25-4.77,8.75-11.25,7.03-20.83-1.26-7,.29-12.44,3.99-18.68,5-8.44,9.09-18.69,8.34-30.56-.21-3.37.89-6.02,2.3-8.73,3.34-6.41,4.34-13.64,3.49-21.34-.04-1.91.08-3.79.55-5.61,4.36-12.85,2.09-26.42,1.03-39.21-1.44-17.34-2.56-34.94-5.57-51.95-3.1-17.56-6.64-34.99-9.16-52.73-2.68-9.13-8.16-14.68-14.34-19.07-4.62-3.28-7.98-7.1-6.49-14.83.67-3.48-.6-5.38-2.76-6.85-2.19-1.49-4.36-3.7-4.74-6.79-1.04-8.47-5.77-12.47-10.04-17.79-7.21-9-13.12-19.79-18.65-30.76-2.03-4.03-3.59-8.76-.89-13.64,3.26-2.07,4.94,1.11,6.32,3.89,4.82,9.69,11.5,17.22,16.89,26.23.82,1.38,1.83,2.57,3.06,3.14,15.68,7.2,25.1,23.85,34.71,40.27,2.39,4.09,4.89,8.14,7.64,11.75,4.91,6.45,10.17,12.55,17.89,11.73,5.54,4.96,5.06,13.52,6.65,20.66,1.87,8.4,3.8,16.83,5.21,25.4,4.58,5.99,7.94,13.26,11.92,19.89Z"
            style="fill:#352d56; stroke-width:0px;" />
        <path
            d="M689.57,4.47c-.34,5.52,1.41,10.19,3.77,14.35,4.78,8.44,9.74,16.7,14.76,24.91,1.63,2.66,3.48,5.37,6.04,6.37,3.87,1.5,5.48,4.5,5.69,9.95.18,4.84,1.23,9.38,5.94,10.82,3.75,1.14,5.36,5.22,3.21,10-2.62,5.82-.09,8.35,3.19,10.84,6.61,5.02,12.85,10.59,16.18,20.24-.42.64-.94,1.08-1.55,1.3-4.84-.15-7.63-5.11-10.99-8.54-13.4-13.69-25.91-28.98-40.96-39.68-9.67-6.87-10.48-6.27-10.38,7.97-3.31,15.22,1.71,28.91,4.78,42.81,3.17,14.32,5.69,28.91,9.5,42.99.75,2.76.83,5.67-.55,8.29-4.2,2.89-6.73-1.16-8.62-4.63-5.52-10.15-10.83-20.28-13.95-32.58-4.26-16.84-10.16-32.96-16.27-48.81-2.67-6.94-7.22-12.33-12.71-15.55-7.03-4.12-13.02-10.2-18.93-16.51-1.93-2.05-3.21-4.63-4.25-7.51-1.35-3.7-3.07-6.96-6-8.77-5.18-7.49-8.07-16.94-12.18-25.35-1.01-2.07-.68-4.46.7-6.36h83.57c.76,1.15.82,2.31.01,3.47Z"
            style="fill:#363362; stroke-width:0px;" />
        <path
            d="M431.01,53.05c-.53-4.38-2.88-5.23-5.71-5.22-3.88.02-7.76.04-11.64-.03-9.46-.17-15.15-6.3-16.37-18.65-.91-9.31-1.06-18.76-1.54-28.15,38.74,0,77.48,0,116.22,0,6.78,4.52,13.89,8.15,20.08,14.22,6.01,5.88,7.07,10.79,2.71,18.93-2.98,5.55-4.88,12.36-9.66,16.06-9.34.97-18.44-2.18-27.71-2.78-17.76-1.15-35.47-2.09-53.16,1.05-2.42.43-4.55,1.78-6.56,3.56-2.08,1.85-4.25,2.88-6.67,1.02Z"
            style="fill:#373769; stroke-width:0px;" />
        <path
            d="M94.09,61.67c3.03-20.29,8.89-38.66,20.39-53.27,1.54-1.96,2.9-4.34,3.14-7.4h27.42c2.51,2.63,3.08,6.31,2.66,10.14-2.55,23.07-3.17,46.53-7.75,69.2-2.54,8.49-6.93,14.26-13.54,17.37-10.78,5.08-20.88,12.55-32.05,16.35-4.64.93-9.36-.32-13.96,2.73-5.34,3.55-10.33,1.51-12.64-3.78-2.31-5.32-1.49-15.62,2.35-19.08,9.65-8.69,16.92-20.29,23.97-32.27Z"
            style="fill:#3a3f78; stroke-width:0px;" />
        <path
            d="M526.34,47.61c-.25-6.7,3.53-10.78,6.19-15.23,3.72-6.25,3.72-10.17-1.94-13.99-4.57-3.08-8.57-7.52-13.43-10.07-2.42-1.27-4.2-3.94-5.18-7.31h20.89c19.64,6.17,35.33,21.76,49.61,39.31,5.94,7.3,11.66,15,18.02,21.75,1.02,1.08,1.82,2.76,3.02,3.23,13.32,5.29,16.74,22.22,23.48,35.19,1.35,2.6,1.92,5.89-.02,8.82-3.4,2.54-6.49.82-8.87-2.17-5.93-7.45-12.66-6.51-19.26-3.18-7,3.54-14.28,6.23-20.9,11.11-5.28-.36-6.64-6.4-9.04-10.95-1.39-4.47-3.29-8.45-6.2-11.48-5.97-9.82-12.95-18.35-19.77-27.08-4.21-6.78-9.33-11.83-15.65-14.63-.7-.92-1.05-2.01-.96-3.32Z"
            style="fill:#313363; stroke-width:0px;" />
        <path
            d="M731.34,373.78c14.54-6.49,21.89-21.41,26.04-39.75,3.59-15.84,9.86-29.72,16.26-43.74,4.04-8.86,8.94-16.79,13.16-25.39,2.98-6.06,6.97-9.24,12.44-9.02v27.74c-3.41,14.77-5.6,29.97-8.79,44.83-2.45,11.38-5.05,21.87-11.58,31.02-6.76,9.47-12.69,20.28-18.39,31.07-2.22,4.21-4.87,7.16-8.26,9.25h-50.93c-2.37-3.92-1.06-7.38,1.42-9.55,6.81-5.95,13.37-12.53,21.11-16.43,2.55-1.28,5-1.57,7.51-.02Z"
            style="fill:#2e284e; stroke-width:0px;" />
        <path
            d="M689.57,4.47c0-1.16,0-2.31-.01-3.47,21.33,0,42.66,0,63.98,0,6.19,6.3,4.28,15.94,5.09,24.08,1.27,12.82,2.17,25.74,3.03,38.65.18,2.62.36,5.36,1.39,7.52,3.9,8.23,6.89,17.18,11.23,25.06.93,2.29,1.27,4.62.15,6.99-10.55,5.07-15.15-6.56-20.68-13.91-8.96-11.91-15.35-26.98-25.39-37.71-1.34-1.44-2.57-3.35-4.12-4.11-15.32-7.45-24.15-23.94-32.74-40.84-.46-.91-1.28-1.51-1.94-2.25Z"
            style="fill:#2e2950; stroke-width:0px;" />
        <path
            d="M626.9,108.5c-4.45-12.54-8.99-26.21-17.01-34.15-6.11-6.05-12.53-12.65-19.54-17.49-1.33-.91-3.01-1.72-3.74-3.24-11.1-23.37-29.6-33.71-46.48-46.93-2.42-1.9-4.84-3.79-7.26-5.68,16.54,0,33.08,0,49.62,0,6.16,2.94,10.35,8.89,14.02,15.79,4.35,8.17,8.77,16.27,12.8,24.73,4.39,13.59,12.08,22.73,21.9,29.22,8.38,5.54,16.27,12.08,22.36,21.83,2.64,4.16,5.64,8.02,5.36,14.18-.27,5.86-2.39,11.47-6.65,10.67-7.65-1.44-15.47-.03-22.98-2.85-1.83-1.31-2.76-3.25-2.4-6.08Z"
            style="fill:#060a39; stroke-width:0px;" />
        <path
            d="M773.1,98.15c-6.26-10.43-13.18-20.37-14.35-34.55-1.72-20.87-3.48-41.73-5.22-62.6,10.01,0,20.02,0,30.03,0,3.52,2.89,4.05,7.37,4.17,12.43.15,5.98-1.44,11.71-1.02,17.66-1.36,6.17-1.73,12.6-1.09,18.85,1.18,11.39-.65,22.29-1.6,33.45-.83,9.71-4.14,13.96-10.94,14.76Z"
            style="fill:#1d1845; stroke-width:0px;" />
        <path
            d="M203.8,1.01c-7.95,29.67-18.53,57.42-33.58,82-3.94,6.44-7.29,13.51-10.91,20.29-4.24,4.27-4.83-.78-5.02-4.07-.52-9.17-1.3-18.51,1.41-27.37,4.48-14.68,5.88-30.03,6.12-45.69.16-10.29,2.38-19.29,9.34-25.16h32.64Z"
            style="fill:#3a4482; stroke-width:0px;" />
        <path
            d="M752.23,399.78c8.95-16.92,18.1-33.57,28.8-48.74,4.07-5.78,4.88-14.53,6.51-22.3,2.83-13.54,4.47-27.55,8.97-40.45.66-1.89,1.35-3.6,2.74-4.67,0,36.99-.06,73.98.09,110.96.02,4.34-.73,5.38-4,5.32-14.36-.27-28.73-.12-43.09-.12Z"
            style="fill:#0e0f3c; stroke-width:0px;" />
        <path
            d="M171.16,1.01c-7.57,15.59-6.22,33.61-7.97,50.82-.61,5.94-1.65,12.09-3.59,17.44-3.6,9.95-2.62,20.31-2.79,30.62-.04,2.22.19,4.2,2.51,3.41-4.46,12.75-8.84,25.59-19.8,32.33-1.09-6.11.98-11.33,1.47-16.72-2.79-3.88-1.26-8.18-.43-12.18,2.08-9.97,4.54-19.81,4.21-30.84-2.84,1.19-3.98,6.79-7.6,4.76,4.54-26.22,6.1-52.95,7.86-79.65h26.12Z"
            style="fill:#373464; stroke-width:0px;" />
        <path
            d="M731.34,373.78c-9.85,4.28-18.22,12.31-27.14,18.94-2.16,1.61-2.92,3.99-2.9,7.06h-35.26c.57-10.76,6.77-16.6,12.66-20.48,6.73-4.43,8.32-10.42,7.89-18.99,1.24-8.16,3.71-15.73,6.31-23.22.88-2.55,1.68-5.42,4.41-5.41,4.43,4.63,2.7,10.91,2.32,16.65-.5,7.58-1.83,15.11.14,22.61,3.09,2.6,4.94-.66,6.71-2.85,6.22-7.69,13.59-13.38,20.06-20.51,6.43-7.08,11.35-16.35,15.15-26.43,5.74-15.25,8.94-31.79,13.82-47.46,1.27-4.1,1.98-9.96,7.13-9.19-.43,8.3-.44,16.73-5.09,23.46-.68.99-1.5,3.08-1.17,3.84,3.97,9.24-2.63,16.04-3.03,24.24-.21,4.34-3,7.55-5.17,9.54-5.62,5.16-4.59,11.78-3.43,18.47,1.6,9.19-.84,17.4-7.02,22.01-2.57,1.91-5.94,2.7-6.41,7.72Z"
            style="fill:#33305c; stroke-width:0px;" />
        <path
            d="M783.58,32.21c-.1-10.4,3.04-20.8,0-31.2,5.22,0,12.48-2.71,15.1.76,2.61,3.47.57,13.11.57,20.04v145.64c-7.29-1.9-9.04-11.11-13.01-17.39-.57-2.17-.16-4.34,1.1-5.49,5.06-4.63,4.83-11.48,5.21-18.51.97-18.1-1.79-35.58-4.54-53.03-1.7-10.77-2.33-21.62-3.11-32.49-.21-2.86-.23-5.74-1.32-8.34Z"
            style="fill:#030938; stroke-width:0px;" />
        <path
            d="M15.77,73.83C7.29,84.18,4.54,98.69.1,111.97.1,76.9.17,41.84.01,6.77,0,2.33.32.68,4.2.84c11.25.47,22.51.17,33.77.17,0,1.16.02,2.31.03,3.47-.84,7.4-3.86,10.71-9.7,10.77-8.17.09-12.1,4.35-14.8,14.73-2.06,7.94-3,16.23-3.8,24.51-.43,4.53.28,8.49,4.22,10.37,3.44,1.64,3.88,5.02,1.85,8.97Z"
            style="fill:#0d0f3e; stroke-width:0px;" />
        <path
            d="M607.07,42.71c-8.08-14.03-14.98-29.27-24.59-41.7,7.83,0,15.67,0,23.5,0,4.36,9.82,8.72,19.64,13.08,29.46,1,2.55,2.45,4.7,3.56,7.14,1.52,3.31,2.56,6.84.15,10.22-2.18,3.04-4.97,3.47-7.76,1.99-2.99-1.59-5.76-3.83-7.95-7.11Z"
            style="fill:#3a4584; stroke-width:0px;" />
        <path
            d="M689.53,361.64c-.57,9.37-2.7,16.79-10.13,20.99-5.75,3.25-8.53,11.88-13.35,17.15h-26.12c4.43-8.82,12.12-11.61,18.21-17.38-.41-4.46,2.44-4.67,4.43-6,2.6-1.75,5.17-3.68,8.24-3.36,5.12,1.58,8.93-1.26,12.2-6.22,1.72-2.61,3.05-6.33,6.51-5.18Z"
            style="fill:#313a75; stroke-width:0px;" />
        <path
            d="M121.54,202.13c4.96-2.01,8.74-7.08,13.88-8.91,5.63-2,10.53-2.54,14.63,4.17,1.67,2.72,4.06,4.21,6.72,4.73,8.09,7.98,14,18.74,20.33,28.87,9,14.4,19.71,26.71,28.23,41.67.63,1.11,1.78,1.63,2.68,2.44,7.27,8.04,12.98,18,19.1,27.45,3.8,3.98,7.2,8.55,10.78,12.86,8.86,12.61,15.95,26.79,21.43,42.41,2.8,4.9,5.93,9.73,1.96,16.08-4.48,3.2-9.01.08-13.32-.51-23.92-3.26-47.78-7.44-71.66-11.27-22.6-3.62-45.21-7.12-67.8-10.82-19.58-3.21-39.14-6.66-58.71-9.93-2.58-.43-5.2-.46-7.8-.68-.4-.25-.99-.5-1.06-.93-1.45-10.17-4.89-19.69-5.59-30.1-2.92-10.61-7.16-20.35-11.92-29.58-3.66-7.09-6.64-13.41-1.08-21.1.81-1.12.87-3.2,1.27-4.83-1-2.44-.21-4.57.9-6.35,4.87-7.8,6.38-17.42,8.35-26.78,1.19-5.66,2.93-10.87,6.26-14.84,6.6-7.86,12.36-16.95,19.67-23.78,3.37-4.1,4.1-9.86,5.08-15.26.96-5.32,2.6-10.2,4.25-15.12.8-2.39,1.75-4.7,4.27-3.83,2.76,5.91,5.91,11.7,3.48,19.26,4.63,15.88,8.65,32.02,11.74,48.56,3.27,2.64,3.96,7.36,5.22,11.59,4.7,15.76,8.44,31.99,13.78,47.47,2.68,7.76,8.11,11.73,11.74,18.14,4.42,7.77,9.02,15.45,13.74,22.97,2.29,3.65,4.73,6.62,8.39,8.58-2.15-7.63-4.78-14.59-8.3-20.67-12.16-21.05-15.82-45.62-17.21-71.13-.34-6.3-2.07-12.52-1.18-18.86.81-5.79,1.24-12.49,7.76-11.96Z"
            style="fill:#2a2249; stroke-width:0px;" />
        <path
            d="M71.84,148.33c-2.48,9.73-5.01,19.43-7.42,29.19-.78,3.16-1.99,5.72-4.24,7.3-12.61-7.44-21.09,3.95-30.31,11.82-2.74,2.34-4.78,7.13-8.86,3.75.62-5.67,4.29-8.69,6.82-12.31,5.62-8.03,6.76-17.99,9.26-27.7,2.62-10.18,3.94-21.06,10.44-29.83,7.46-10.08,11.54-24.08,19.1-34.57,4.21-5.83,9.96-8.87,13.81-15.53,2.84-4.92,6.89-8.63,9-14.54.87-2.44,2.57-3.86,4.65-4.24-3.63,13.85-12.64,21.67-20.42,30.39-5.1,5.72-4.79,11.89-3.95,18.5.64,5.04,4.2,5.45,7.32,3.93,5.57-2.71,11.48-2.62,17.18-4.17.57,2.77-.71,4.72-2.21,5.53-7.07,3.8-9.52,12.35-12.87,20.31-1.85,4.42-2.59,10.57-7.3,12.16Z"
            style="fill:#32356a; stroke-width:0px;" />
        <path
            d="M35.33,309.65c6.73,8.64,7.06,19.7,6.65,31.03.48,4.44,1.32,8.88,1.36,13.33.07,7.01,5.37,7.07,7.65,11.06-3.76.8-4.3,5.06-5.44,8.77-3.97,12.93-7.75,13.45-16.97,7.03-11.92-8.29-13.2-22.47-13.99-37.22-.55-10.34-.25-20.78-.07-31.16.14-8.48,4.09-11.81,10.06-8.76,3.62,1.85,7.17,3.94,10.76,5.92Z"
            style="fill:#383d74; stroke-width:0px;" />
        <path
            d="M21.01,200.4c6-2.98,9.42-10.69,15.2-14.32,4.31-2.71,8.57-5.7,13.1-7.44,4.46-1.71,9.3-2.18,10.87,6.19-4.71,5.91-9,12.59-14.22,17.56-8.15,7.74-10.68,19.16-12.82,30.82-1.56,8.51-4.87,15.16-9.54,20.94-3.49,1.11-6.01,4.25-8.69,7.14-4.49,4.85-5.86,4.05-7.09-3.21-3.83-22.59,3.21-40.7,13.19-57.67Z"
            style="fill:#383b71; stroke-width:0px;" />
        <path
            d="M15.77,73.83c-.26-2.31.71-5.64-2.56-5.46-5.5.31-6.78-4.95-6.43-10.25.85-13.02,1.56-26.03,7.28-37.7,3.43-7,7.53-9.75,13.45-9.03,4.55.55,8.71-.03,10.48-6.92-2.33,14.22-4.47,28.47-4.08,43.16.06,2.43-1.04,4.34-2.3,5.97-5.27,6.76-10.56,13.49-15.84,20.24Z"
            style="fill:#1a1745; stroke-width:0px;" />
        <path
            d="M312.48,200.41c-.94,23.65.8,47.19,1.98,70.73.13,2.64,1.51,5.38,2.72,7.69,6.2,11.81,11.57,24.38,18.54,35.49,3.93,6.28,2.51,14.35,3.65,21.56.79,5.01.63,10.29.82,15.46.13,3.67,1.27,6.42,3.31,8.99,3.11,3.93,6.54,7.69,7.83,13.55-.02,5.25-2,6.7-5.84,6.37-20.07-1.75-40.15-3.29-60.24-4.71-7.99-.57-15.92-2.74-23.98-1.64.81-6.18-2.88-10.35-3.95-15.69,1.54-20.26,1.8-40.68,6.13-60.53,1.89-8.67,5.23-14.53,11.57-16.88,3.77-1.4,5.04-4.33,5.81-9.04,1.21-7.43.96-14.88,1.12-22.35.45-21.45,2.8-42.42,10.75-61.48,2.3-5.52.07-8.45-2.1-11.99-.76-4.08.55-7.23,2.51-10.13,2.45-3.62,5.14-6.94,7.52-10.65,2.11-3.29,4.84-4.91,8.08-3.49,3.27,1.43,4.64,4.89,4.82,9.25.27,6.87.69,13.8-.15,20.58-.68,5.49-.4,10.8.13,16.18-.22.99-.56,1.9-1.03,2.73Z"
            style="fill:#1d1845; stroke-width:0px;" />
        <path
            d="M663.44,378.96c-1.76,1.15-3.53,2.29-5.29,3.44-9.54.06-19.09.11-28.63.17-2.84-1.75-5.49.23-8.24.66-1.2.19-2.74.72-3.54-1.1-.77-1.76-.11-3.74.89-4.63,4.38-3.9,6.6-9.62,8.33-15.92.44-1.59,1.59-2.81,2.75-3.58,7.34-4.88,10.14-14.15,13.08-23.37,1.94-6.07,3.35-12.65,6.74-17.59,3.85-5.61,3.97-11.92,2.87-18.57-.74-4.48-1.87-8.82-2.3-13.44-2.42-26.2-6.36-52.01-11.8-77.41-1.27-5.93-5.61-10.59-4.19-17.64.26-2.06.88-4.13,2.11-5.21,6.09-5.34,6.29-12.67,4.99-21.24-1.59-10.5-3.52-20.81-7.37-30.21-1.98-4.84-3.45-9.88-4.99-14.94-.7-2.24-.97-4.42.54-6.32,7.4,1.39,15.1-2.25,22.34,2.72,1.75,1.2,3.11-1.19,3.81-3.54,1.15-3.88,2.01-7.76-.24-11.46-1.33-2.2-3.48-3.62-3.6-6.93,3.92-3.1,6.43.49,8.06,4,6.11,13.13,13.08,25.4,17.79,39.91,4.99,15.38,11.46,30.05,17.03,45.21,2.52,6.84,4.79,13.49,4.16,21.31-.72,8.94,1.13,15.6,8.21,19,3.59,1.72,6.96,4.99,7.07,11.22-1.76,4.75-2.02,9.85-2.24,15.06-.45,10.68-4.95,18.52-11.51,20.75-9.06,3.07-15.73.16-20.16-10.06-4.2-9.71-8.24-19.59-11.42-30.02-.88-2.87-1.49-6.02-4-7.8-.06,10.18,1.09,20.22-1,30.06-.41,1.95-.4,4.53-1.65,5.5-7.86,6.11-4.87,14.29-2.51,22.71,2.28-3.69,4.5-8.05,8.74-5.65,4.07,2.31,5.62,6.88,5.51,12.58-.28,2.25-1,4.33-1.41,6.54-1.75,9.42-1.38,10.32,5.38,13.52,4.49,7.91,9.6,15.48,8.57,26.52-.09,3.95.47,8.38-3.15,10.29-3.13,1.65-5.36-.87-7.42-3.52-3.26-4.2-4.87-2.47-5.43,2.66-.34,3.11-.17,6.29-.29,9.43-.18,4.64-1.54,8.68-4.8,10.41-4.41,2.34-5.27,5.14-2.12,10.1,1.12,1.77,1.42,4.17.34,6.43Z"
            style="fill:#111240; stroke-width:0px;" />
        <path
            d="M636.02,190c.54,9.21,5.85,15.99,6.8,25.34,1.5,14.75,7.3,28.52,7.58,43.52.27,14.19,3.06,27.45,5.31,41.05,1.1,6.64,1.22,14.24-4.03,19.46-3.27,3.25-3.87,9.03-5.16,13.63-1.75,6.24-4.21,11.65-6.61,17.35-2.12,5.04-3.71,9.57-8.52,10.37-1.54.26-2.48,1.98-3.04,4.07q-2.91,10.89-9.49,16.37c3.5,3.43,7.92-6.44,10.65,1.4-8.85,3.06-17.89.96-26.83,1.61-3.21.23-6.43.07-9.65.08-6.48,2.18-13.16-.54-19.64,1.44-.47,0-.94,0-1.4,0-9.34-3.41-10.3-6.37-4.76-17.1,4.04-7.82,3.47-16.41,3.3-25-.06-2.97-2.31-3.88-3.77-5.54-4.43-5.06-3.95-8.46,1.5-10.76,4.82-2.04,9.77-2.66,14.78-1.41,1.97.49,3.93,1.15,4.76-2.41.92-3.92,2.87-7.07,4.61-10.36,3.98-7.52,5.54-15.77,4.22-24.88,2.63-3.4,4.95-7.43,7.95-10.09,10.2-9.04,13.13-22.62,14.48-37.59.49-5.39,1.85-10.64,2.81-15.95.58-7.68.51-15.45,2.41-22.94,1.99-7.84,5.69-11.77,11.73-11.66Z"
            style="fill:#1f1945; stroke-width:0px;" />
        <path
            d="M596.64,288.23c5.47,10.36,3.74,15.38-2.72,29.85-4.43,9.94-7.66,15.21-16.79,11.1-3.32-1.49-7.77,1.45-11.81,2.39.33.92.43,1.53.71,1.9,2.38,3.14,7.99,2.55,7.69,8.1-.52,9.54,1.17,19.72-3.67,28.46-5.18,9.35-5.05,9.48,1.94,15.67-15.35.12-30.69.39-46.03.26-5.11-.04-10.2,3.57-15.31.13-3.27-1.7-4.95-4.23-2.59-8.84,8.47,1.96,11.3-8.96,17.06-13.19.92-.67,1.65-1.78,2.47-2.69,1.14-3.11,2.89-5.36,5.33-6.63,1.32-1.68,2.64-3.35,3.96-5.03,1.39-5.35,3.77-9.27,8.26-10.21,4.77-5.84,11.65-6.79,16.47-12.5,1.88-5.03,4.98-7.83,9.11-8.72,3.93-4.01,7.86-8.03,11.79-12.04,2.74-2.22,5.48-4.46,6.78-8.66,2.45-3.12,4.9-6.23,7.35-9.35Z"
            style="fill:#291f4a; stroke-width:0px;" />
        <path
            d="M508.05,377.25c-.4,3.6,2.27,5.61,2.59,8.84-4.78,2.81-9.55,1.49-14.31-.09,3.7-3.41,7.15-7.39,11.71-8.75Z"
            style="fill:#3b2f53; stroke-width:0px;" />
        <path d="M573.4,385.7c6.43-3.18,13.1-.89,19.64-1.44-6.44,3-13.09,1.1-19.64,1.44Z"
            style="fill:#291f4a; stroke-width:0px;" />
        <path
            d="M312.26,198.84c-2.65-11.28-1.02-22.86-1.45-34.3-.14-3.79,1.17-8.6-2.73-10.43-3.62-1.7-4.77,2.77-6.51,5.48-3.49,5.44-8.19,9.55-10.3,16.51.62,4.54-1.31,7.67-3.38,10.71-3.79,5.57-7.05,11.7-10.3,17.8-3.11,5.85-5.41,12.08-6.56,19.42-2.82,18.01-6.04,35.9-8.83,53.93-2.59,16.73-12.29,27.98-21.93,38.49-.99,1.08-2.43,1.19-3.73.38-4.86-2.09-7.43-7.69-10.66-12.28-2.16-8.92-4.82-17.54-8.41-25.65-4.21-9.48-6.64-9.68-11.02-.66-10.32-14.69-20.7-29.31-30.93-44.12-5.41-7.84-9.9-16.82-16.05-23.74-2.08-2.34-2.78-4.96-2.71-8.28,4.15-17.48,8.97-34.74,12.27-52.5,3.16-16.99,13.11-26.13,21.86-36.3,13.15-15.28,27.24-29.13,40.05-45.01,2.04-2.53,4.52-4.42,6.8-6.61,10.84-2.89,21.43-7.33,31.32-13.6,11.19-7.11,22.64-13.1,34.3-18.48,4.07-1.88,7.51-.08,11.46,3.02,10.34,8.13,19.22,18.73,28.37,28.67,9.66,10.5,17.73,23.55,25.28,36.92-16.42,22.9-31.66,47.12-46,72.35-1.37,4.78-3.43,8.95-6.22,12.48-1.65,1.79-1.62,4.25-1.53,6.74-2.09,2.4,1.96,7.76-2.47,9.03Z"
            style="fill:#383b72; stroke-width:0px;" />
        <path
            d="M121.54,202.13c-3.66,3.81-5.87,8.72-5.15,14.96,2.47,21.2,2.15,42.98,8.77,63.32,4.02,12.33,11.12,22.05,15.03,34.3,1.87,5.86,5.31,10.93,5.72,18.74-8.36-4.83-14.66-11.21-19.6-20.27-5.83-10.7-11.62-21.44-19.55-29.88-2.28-2.43-3.3-7.27-4.44-11.23-4.94-17.2-9.74-34.48-14.51-51.77-.36-1.29-.16-2.86-.22-4.3,9.15-9.78,20.79-12.8,30.88-20.06,1.34-.96,3.2-1.41,4.3.2,1.67,2.43-.77,3.97-1.23,5.98Z"
            style="fill:#0d0f3f; stroke-width:0px;" />
        <path
            d="M71.84,148.33c3.13-8.69,6.14-17.45,9.41-26.04,2.66-6.98,8.84-7.58,12.96-11.97,11.58-6,23.15-12.03,34.73-17.99,4.18-2.15,5.84-7.35,8.23-11.68,3.52-4.09,5.04-10.63,9.87-14.4,2.59,19.03-2.9,35.62-6.05,52.66-8.58,0-17.16.27-25.72-.09-6.22-.26-10.36,2.56-13.7,9.96-5.84,12.91-11.72,25.85-18.88,37.66-2.39,3.93-4.28,3.93-6.83,1.01-1.85-6.18-4.63-12.02-4.02-19.11Z"
            style="fill:#111141; stroke-width:0px;" />
        <path
            d="M762.66,264.5c-5.88,9.6-7.54,21.59-10.46,32.84-3.17,12.21-6.53,24.55-11.67,35.3-6.56,13.72-16.76,23.13-26.96,31.98-3.88,3.37-5.84,10.24-11.29,10.76-1.47.14-3.04,1.36-3.63-1.65-1.42-5.27,1.44-8.18,3.8-10.91,4.58-5.29,8.75-11.19,13.5-16.17,3.45-3.62,5.4-8.04,6.49-13.5,6.62-33.1,11.97-66.57,16.67-100.24,1.26-9.05,2.73-18.04,3.99-27.1.41-2.94,1.32-5.47,3.18-7.3,7.19-4.84,11.15-3.15,13.31,6.67,3.11,14.13,4.22,28.75,5.08,43.4.23,3.91-.82,7.32-1.97,10.74,0,1.72-.02,3.44-.03,5.16Z"
            style="fill:#393d75; stroke-width:0px;" />
        <path
            d="M762.69,259.34c3.58-20.13-2.5-38.16-6.94-56.56-1.87-7.75-5.42-3.84-8.66-2.36-1.46-1.15-2.1-3.06-1.96-5.11,1.12-16.2-5.77-29.67-8.44-44.56-1.69-9.43-6.66-17.42-6.59-27.55,3.77-8.67,10.16-10.45,16.92-11.24.44,0,.88-.01,1.32-.02,5.08,9.99,3.3,22.3,6.42,33.05,6,20.66,6.53,42.76,8.51,64.4,1.25,13.69,1.41,27.56,1.98,41.35.14,3.29-.7,6.26-2.57,8.59Z"
            style="fill:#30356a; stroke-width:0px;" />
        <path
            d="M783.58,32.21c1.49,1.86,2.16,4.21,2.53,6.85,2.78,19.5,5.72,38.97,8.4,58.5,1.77,12.87.62,25.91.65,38.87.02,7.88-5.82,9.24-8.93,13.63-4.24-7.3-4.3-16.55-6.54-24.79-1.96-7.23-1.56-15.46-5.26-21.96-.44-1.72-.88-3.43-1.33-5.15-.59-2.36-2.17-4.98-.35-7.12,1.5-1.77,2.58.97,3.81,1.86,2.96,2.12,3.87-.13,4.23-3.53,1.98-18.96,3.63-37.95,2.79-57.15Z"
            style="fill:#121240; stroke-width:0px;" />
        <path
            d="M731.14,122.52c6.4,16.24,9.53,34.14,14.68,51.01,2.73,8.95,2.64,17.77,1.28,26.88-2.2,14.67-4.48,29.32-6.6,44.01-4.48,31.17-9.79,62.08-15.85,92.77-.97,4.93-3.06,8.29-6.11,11.65-6.99,7.72-13.31,16.52-19.9,24.88-3.31,1.96-3.48,0-3.22-3.87.82-12.54,1.34-25.12,1.98-37.69-2.05-1.32-2.13-4.62-3.7-6.68-2.24,2.32-2.18,6.75-4.71,8.61-1.58,1.19-3.15,1.58-4.65-.2.4-10.27-5.91-16.98-7.84-26.01-3.47-2.12-5.28-5.08-4.9-10.78.21-3.16.82-6.76-.32-10.03-.3-2.24-.26-4.7-.98-6.67-.82-2.26-2.17-4.69-4.4-4.47-2.27.23-3.1,2.75-3.67,5.36-.65,3.01-1.34,6-2.73,9.11-3.54-9.71-5.39-19.93-6.31-30.47-.16-1.85.76-3.88,2.25-3.34,5.71,2.09,5.11-3.38,5.76-7.8,1.4-9.47,1.35-18.86-.1-28.32-.41-2.67-1.29-6.47.86-7.96,2.41-1.67,2.88,2.55,4.07,4.26,6.9,9.97,8.68,23.62,14.01,34.78,3.44,7.2,5.29,15.66,14,14.93,10.36-.87,14.77-6.18,15.17-20.3.13-4.72-1.83-10.96,3.88-12.88,1.76-6.92,1.15-13.14-1.94-19.49-4.92-10.13-8.61-21.19-12.13-32.29-1.41-4.44-3.05-8.98-1.74-14.08-3.38-15.99-6.41-32.13-10.26-47.92-2.54-10.42-4.38-21.03-6.51-31.56-1.14-5.65-.05-10.76,2.38-15.47,4.11-1.47,7.24,1.87,10.09,4.54,10.9,10.26,22.55,19.27,31.95,32.13,2.75,3.77,6.58,6.92,6.22,13.35Z"
            style="fill:#080c3b; stroke-width:0px;" />
        <path
            d="M697.28,167.45c4.85,12.12,7.7,25.49,13.14,37.24,1.93,4.15,3.96,8.25,5.58,12.61,2.32,6.24,2.36,12.06-2.91,16.01-2.15-4.25-5.26-7.2-8.8-8.46-6.49-2.32-9.51-9.01-8.46-16.12,2.12-14.41-3.99-24.99-7.93-36.36-8.7-25.09-17.68-50.08-29.86-72.7-1.65-3.06-3.19-6.27-6.34-6.85-10.86-11.68-23.74-19.27-34.94-30.17-4.88-4.75-6.88-12.9-9.69-19.93,2.88,1.24,5.78,2.39,8.63,3.75,2.11,1.01,4.18,2.1,5.88-.85,1.43-2.47.78-4.94-.33-7.21-1.19-2.44-2.37-4.84-2.19-7.93,6.01,7.28,10.33,16.63,17.27,22.97,5.4,4.93,11.62,7.52,16.84,12.74,10.59,10.58,12.9,27.43,18.73,41.67,4.46,10.91,5.84,23.32,10.43,34.01,4.05,9.44,8.55,18.52,14.94,25.6Z"
            style="fill:#343c78; stroke-width:0px;" />
        <path
            d="M731.14,122.52c-13.79-20.57-31.46-34.55-48.25-50.02-2.53-4.86-2.69-10.33.31-14.23,3.13-4.08,6.7-.96,10.11,1.37,20.02,13.65,36.05,34.47,53.72,52.33-.31,1.06-.66,3.06-.91,3.04-5.88-.53-9.61,6.39-14.97,7.52Z"
            style="fill:#393f79; stroke-width:0px;" />
        <path
            d="M629.39,112.02c.46,1.73.92,3.45,1.38,5.18.54,3.56-.59,6.47-2.74,8.05-6.28,4.6-11.32,11.48-17.47,16.37-2.92,2.33-5.86,1.29-8.73,2.17-12.12-4.37-20.76-13.73-24.51-30.11.92-1.58,1.63-4.14,2.8-4.57,8.71-3.25,16.46-10.48,25.82-11.01,5.53-.32,10.71-.14,14.49,6.94,1.13,2.12,4.26,2.36,6.47,3.46.83,1.18,1.66,2.35,2.49,3.53Z"
            style="fill:#383d74; stroke-width:0px;" />
        <path
            d="M544.29,63.57c-1.32,3.13-2.16,6.39-5.16,1.3-3.36-5.68-7.56-10.49-11.4-15.67,7.58.61,11.95,7.73,16.56,14.37Z"
            style="fill:#d2d3d4; stroke-width:0px;" />
        <path
            d="M570.65,101.58c-6.96,1.35-8.33-9.45-13.83-11.34-.11-.04-.12-1.72.16-2.37.53-1.24,1.39-.81,2.26-.43,1.83.81,2.26,5.72,5.23,3.15,2.64,3.09,4.56,6.89,6.18,10.99Z"
            style="fill:#d2d2d4; stroke-width:0px;" />
        <path
            d="M688.29,332.15c.72-2.97,1.44-5.93,2.15-8.9.7-2.95,1.77-5.26,4.51-4.76,2.86.52,2.27,3.55,2.38,5.97.11,2.56.06,5.14.07,7.71-2.62,9.82-6.61,19-7.87,29.46-3.2,6.12-6.68,11.65-12.41,14.04-2.17.9-3.98,2.11-5.89-.3,1.27-7.07,6.67-10.71,8.15-17.81,1.89-9.05,5.77-17.04,8.91-25.41Z"
            style="fill:#3a4483; stroke-width:0px;" />
        <path
            d="M688.29,332.15c-1.46,12.7-5.48,24.23-9.35,35.81-1.44,4.32-5.2,4.83-7.72,7.41-2.6,1.2-5.19,2.39-7.79,3.59-.42-1-.73-2.13-1.27-2.99q-6.49-10.19,2.67-16.67c2.05-1.44,2.46-3.79,2.49-6.46.05-4.01.04-8.03.07-12.04.03-3.76,1.04-6.81,3.88-8.09,2.96-1.33,4.91.38,6.32,3.93.98,2.47,2.08,5.8,4.69,4.72,2.57-1.06,1.89-4.69,2.05-7.46,1.32-.58,2.64-1.16,3.96-1.75Z"
            style="fill:#111240; stroke-width:0px;" />
        <path
            d="M236.55,316.84c7.42-8.93,14.03-18.79,20.09-29.39,3.58-6.26,3.57-13.62,4.23-20.55,1.68-17.81,5.78-34.88,8.96-52.16,1.96-10.66,8.91-18.87,14.09-27.72,2.25-3.84,4.89-7.28,7.35-10.91,2.01-.09,4.16-2.46,5.98.75,1.79,3.15.78,6.03-.44,8.82-9.75,22.37-12.24,46.88-12.02,72.15.05,5.52-.46,10.88-1.32,16.24-.92,5.7-.65,11.6-7.84,10.51-4.15-.63-7.92,4.75-8.95,10.85-2.9,17.07-5.79,34.15-5.52,51.86.06,4.17-.04,8.85-3.84,10.91-5.39-7.12-6.67-17.63-11.72-25.05-3.42-5.03-7.32-9.62-9.05-16.31Z"
            style="fill:#0e0f3f; stroke-width:0px;" />
        <path
            d="M206.46,278.25c.29-3.04-4.05-5.6-.49-8.99,3-2.86,6.05-2.65,9.12-.34,4.21,3.16,13,27.53,12.19,33.94-.08.65-.91,1.14-1.39,1.7-6.48-8.77-12.96-17.54-19.44-26.31Z"
            style="fill:#3b4585; stroke-width:0px;" />
        <path
            d="M601.84,143.79c10.37-7.47,19.8-16.74,28.94-26.59,5.77,13.77,10.45,27.96,13.2,43.52,2.26,12.83.37,22.22-7.95,29.28-9.38,6.08-10.6,18.34-12.85,29.84-.32,1.62-.85,3.17-1.28,4.76.74-4.69-.44-9.05-1.34-13.46-4.16-20.39-8.58-40.67-14.47-60.34-.91-3.05-2.18-5.36-4.24-7.02Z"
            style="fill:#313568; stroke-width:0px;" />
        <path
            d="M589.29,297.58c1.38.16,2.72-2.12,4.71.54-4.72,1.14-4.89,11.66-11.49,8.12,1.85-3.45,4.19-6.23,6.78-8.66Z"
            style="fill:#1f1945; stroke-width:0px;" />
        <path d="M545.13,339.5c-2.75,3.4-5.5,6.81-8.26,10.21-1.26-7.33,2.43-11.89,8.26-10.21Z"
            style="fill:#cdcdce; stroke-width:0px;" />
        <path d="M570.72,318.28c-2.6,3.72-5.78,6.36-9.11,8.72,1.05-8.53,4.7-12.02,9.11-8.72Z"
            style="fill:#d4d4d5; stroke-width:0px;" />
        <path d="M316.27,183.07c1.34-4.81,3.69-8.73,6.22-12.48,1.01,6.87-2.19,10.04-6.22,12.48Z"
            style="fill:#dbdbdb; stroke-width:0px;" />
        <path
            d="M339.53,199.98c-.92-.1-1.77-.49-1.86-1.86-.12-1.8.75-2.55,1.99-2.52.91.02,1.77.48,1.86,1.86.13,1.82-.76,2.48-1.99,2.52Z"
            style="fill:#dbdbdb; stroke-width:0px;" />
        <path
            d="M328.64,202.84c-.03,1.27-.55,2.12-1.48,2.21-1.18.12-2.09-.6-2.03-2.32.05-1.29.89-1.82,1.8-1.81.91.01,1.6.55,1.7,1.92Z"
            style="fill:#dbdbdb; stroke-width:0px;" />
        <path
            d="M541.27,269.05c1.44.21,1.75,1.2,1.78,2.34.03,1.14-.21,2.33-1.24,2.36-1.21.04-1.96-1.01-1.71-2.58.14-.86.85-1.57,1.18-2.11Z"
            style="fill:#d0d0d0; stroke-width:0px;" />
        <path d="M532.91,354.74c-1.45,2.67-3.06,5.11-5.33,6.63-.34-5.2,1.72-7.01,5.33-6.63Z"
            style="fill:#c4c1c7; stroke-width:0px;" />
        <path d="M312.26,198.84c.82-3.01,1.65-6.02,2.47-9.03-.94,3.46,4.23,9.22-2.25,10.6-.11-.51-.18-1.04-.22-1.57Z"
            style="fill:#dbdbdb; stroke-width:0px;" />
        <path d="M671.28,287.08c3.39,6.21,1.23,14.87,5.22,20.81-6.71-1.03-8.18-3.55-6.84-11.81.49-3.01,1.08-6,1.63-9Z"
            style="fill:#111240; stroke-width:0px;" />
    </g>
    <text x="40" y="60" font-size="36" fill="#fff8e6" font-family="sans-serif" font-weight="bold">${t.toUpperCase()}</text>
</svg>
