<svg class="tile-svg" xmlns="http://www.w3.org/2000/svg" viewBox="0 0 800 400">
    <g id="c">
        <path
            d="M.13,178.87C.13,120.72.16,62.58.04,4.44.04,1.11.4,0,4.59,0,268.2.13,531.8.13,795.41,0c4.2,0,4.55,1.12,4.55,4.44-.11,59.35-.08,118.7-.08,178.05-7.59-11.73-9.94-25.23-14.73-39.62-1.47,5.25-2.42,8.73-3.42,12.21-4.57,15.92-11.21,30.84-24.01,42.85-1.53,1.44-4.61,2.75-3.43,5.21.94,1.95,3.9,1.13,5.98,1.41,2.52.34,6.11-.05,4.25,3.86-2.33,4.9-3.93,10.31-9.07,13.65-4.43-16.11-10.06-31.93-13.44-48.42-2.98,12.56-9.23,23.47-16.85,33.82-1.33,1.81-3.56,3.69-.59,6.25,1.54,1.33.62,3.41-.25,5.09-2.7,5.25-5.4,10.51-8.09,15.77-1.7-3.14-4.36-6.13-.69-9.72,1-.97-.26-2.25-.98-3.23-7.78-10.63-14.24-21.83-17.35-34.6-2.61,9.9-4.39,19.82-8.65,29.12-3.8-2.12-4.82-5.91-6.56-9.27-.55-1.05-.78-2.49-2.33-2.57-1.65-.09-1.78,1.45-2.39,2.44-2.33,3.81-4.61,7.65-7.03,11.42-1.56,2.43-6.82,4.2-1.03,7.67,1.28.77-.05,2.67-1.03,3.69-1.86,1.93-3.91,3.7-5.88,5.53-4.89-4.96-5.08-11.99-9.14-18.43-4.79,12.37-9.8,23.64-15.43,34.67-2.43-3.15-6.94-6.65-3.19-10.28,2.84-2.75,1.67-3.94.24-5.87-5.81-7.79-10.71-16.03-14.98-24.64-2.86-5.77-4.62-11.83-6.31-18.07-.78.41-1.08.48-1.11.6-4,15.4-6.51,31.21-14.81,45.42-.29.5-.61,1.55-.45,1.64,6.79,3.8.41,6.11-1.15,8.94-6.18-10.03-8.5-21.34-12.19-33.34-3.19,9.79-5.72,18.49-8.89,26.99-3.92,10.49-9.06,20.45-17.94,28.31-2.26-1.33-3.81-3.25-5.09-5.36-.52-.86-1.21-2.31.16-2.46,7.27-.79,1.65-3.68.83-5.13-3.03-5.29-6.69-10.25-9.67-15.61-2.16-3.89-3.26-8.52-7.42-12.04-4.79,10.84-8.21,21.65-15.58,30.7-3.65-4.62-4.61-10.42-7.82-16.31-4.66,12.11-9.09,23.28-15.17,33.8-5.55-1.91-6.96-6.78-9.24-11.03-.56-1.04-.65-2.62-2.15-2.75-1.94-.17-2.37,1.58-2.81,2.81-1.58,4.46-4.64,8.1-7.42,11.9-.94,1.29-2.78,2.77-1.66,4.25,2.92,3.85.12,6.31-1.97,9.03-.74.96-2.31,2.13-1.51,3.08,4.57,5.44-1.98,6.45-4.08,9.21-5.12-5.14-8-11.41-10.43-17.88-.61-1.64-2.35-4.42,1.88-4.01,4.32.42,3.03-1.58,2.1-3.49-2.85-5.85-5.85-11.64-8.61-17.53-.73-1.57-2.42-4.07-.79-5,5.29-3,1.19-5.26-.27-7.67-2.12-3.5-4.44-6.9-6.68-10.34-5.95-9.12-9.42-19.15-12.64-29.42-3.38,15.28-7.04,30.29-14.19,44.35-.33.64-.42,2.09-.2,2.17,5.98,2.17.04,4.72.31,7.02-3.06-.86-3.38-3.4-4.07-5.7-2.38-8.01-4.74-16.04-7.1-24.06-3.83,12.19-10.47,22.87-17.7,33.29-.7,1.01-1.21,1.97-.63,3.33,2.66,6.31-.54,10.89-5.39,14.93-4.71-10.61-9.42-21.23-14.47-32.6-3.35,7.29-5.51,14.24-10.31,19.97-2.18-2.73-4.43-5.42-6.51-8.22-1.21-1.63-1.83-3.5.98-4.3,5.53-1.57,3.6-3.71.83-6.25-4.67-4.28-7.99-9.39-10.86-14.87-2.01-3.85-2.63-8.33-5.97-12.2-.67.86-1.17,1.28-1.4,1.81-3.82,9-8.17,17.68-15.92,24.53-2.09,1.85-1.76,3.6,1.32,4.32,2.75.65,2.79,2.34,1.67,4.13-1.81,2.89-2.75,6.39-6.3,8.14-3.98-5.2-5.52-11.53-9.11-18.05-3.49,8.57-6.13,16.43-11.74,22.93-5.71-4.22-7.36-10.74-10.75-16.27-.7-1.14-.49-3.11-2.49-3.13-1.48-.01-1.91,1.48-2.44,2.53-3.92,7.83-6.74,16.12-11.36,23.67-.77,1.26-.94,2.48.63,3.7,5.1,3.97,1.93,5.43-2.45,6.4-6.14-6.89-10.94-14.51-14.65-22.73-1.22-2.71-1.89-5.43,2.82-5.28,5.61.18,4.87-2.09,3.02-5.46-9.18-16.71-17.23-33.86-23.67-51.64-.33-.9-.61-1.94-2.35-1.8-.79,2.17-1.52,4.48-2.47,6.71-4.83,11.42-9.82,22.77-18.69,32.19-4.23-13.75-8.45-27.49-13.18-42.87-2.36,6.96-4.26,12.05-7.2,16.78-4.17,6.73-8.19,13.57-7.14,21.79-11.69-7.15-15.36-19.14-21.13-31.19-3.03,7.92-5.65,14.69-10.29,20.54-5.25-3.81-6.37-9.79-9.1-14.91-.34-.64-.48-1.9-.07-2.25,3.35-2.94.59-5.11-1.05-7.27-4.67-6.16-7.68-13.04-10.58-19.99-.72-1.73-.47-3.99-2.93-5.07-4.43,13.91-8.8,27.53-13.05,41.19-.25.81.31,1.91.71,2.8.98,2.16-.3,3.42-1.95,4.58-9.08-12.7-17.96-25.51-23.49-41.9-4.12,11.1-8.11,20.13-12.52,29-4.36-1.56-5.62-5.32-7.25-8.79-.8-1.7-.56-3.41,1.7-3.75,7.12-1.06,3.33-3.93,1.16-6.2-7.81-8.13-12.86-17.5-15.51-28.06-.5-2.01-.35-4.44-2.85-5.73-2.07,1.36-1.99,3.51-2.63,5.34-3.96,11.2-6.87,22.87-17,31.19-1.44-1.81-2.71-3.69-3.19-5.94.36-.28.72-.56,1.08-.84,3.06-1.17,1.34-2.78.49-4.34-4.32-7.93-7.56-16.23-9.8-24.86-1.51-5.85-2.95-11.72-4.76-18.92-.92,3.59-1.29,5.78-2.04,7.86-3.59,9.88-7.19,19.78-15.59,27.32Z"
            style="fill:#33667b; stroke-width:0px;" />
        <path
            d="M755.45,222.07c5.15-3.33,6.75-8.75,9.07-13.65,1.86-3.91-1.73-3.52-4.25-3.86-2.08-.28-5.04.54-5.98-1.41-1.18-2.46,1.9-3.77,3.43-5.21,12.8-12.01,19.44-26.93,24.01-42.85,1-3.48,1.95-6.97,3.42-12.21,4.79,14.39,7.15,27.89,14.73,39.62,0,70.86-.05,141.71.13,212.56.01,4.14-.88,4.95-5.35,4.95-263.1-.13-526.19-.13-789.29,0-4.47,0-5.36-.81-5.35-4.94.18-72.06.13-144.13.13-216.19,8.4-7.54,12-17.44,15.59-27.32.75-2.07,1.12-4.27,2.04-7.86,1.81,7.2,3.25,13.07,4.76,18.92,2.23,8.63,5.48,16.93,9.8,24.86.85,1.56,2.56,3.17-.5,4.34-1.15-.6-1.47-.27-1.08.84.48,2.25,1.75,4.13,3.19,5.94.59,2.91,4.85,5.63,2.8,8.16-2.84,3.52-.95,5.95.23,8.82,2.4,5.88,6.51,10.88,9.87,16.26.73,1.17,2.6,2.21,1.72,3.63-1.18,1.91-3.08.34-4.67.17-1.64-.17-3.47-1.51-4.87.06-1.3,1.47-.14,3.14.55,4.53,2.56,5.11,4.97,10.31,8.03,15.15,2.78,4.4,1.87,5.73-3.7,4.22.87,3.89,3.3,6.31,5.09,9,2.24,3.39,4.83,4.13,8.21.71,3.52-3.57,7.15-7.01,9.94-11.13,1.68-2.48,5.05-4.9-1.48-5.96-2.74-.45-.65-2.61.12-3.76,2.77-4.07,6.24-7.75,7.86-12.45.66-1.91,1.95-4.42-.37-5.48-4.55-2.08-3.05-4.35-1.34-7.21,1.67-2.8,2.94-5.81,4.38-8.73,4.41-8.87,8.4-17.9,12.52-29,5.53,16.39,14.41,29.2,23.49,41.9-7.13,3.14-4.94,6.78-.96,10.92,2.64,2.75,5.42,5.58,6.66,9.17-2.4,1.93-6.17-1.22-7.23,1.98-.92,2.75,1.74,4.83,3.38,6.86,1.81,2.24,4.09,4.15,6.12,6.24,1.11,1.14,3.37,1.9,2.74,3.76-.72,2.13-3.2,1.6-5.05,1.91-2.22.38-5.23-.6-6.19,2.16-.75,2.16,1.3,3.7,2.63,5.24,10.38,12.04,15.2,11.47,21.31-2.65.94-2.17,2.97-4.27,2.12-6.79-.9-2.68-4.77.54-6.12-2.49,5.3-5.16,10.18-10.78,13.87-17.16.98-1.7,2.91-4.48.52-5.34-7.81-2.8-1.63-5.15-.05-7.55,1.23-1.88,2.83-3.55,4.26-5.32,4.64-5.85,7.26-12.62,10.29-20.54,5.77,12.04,9.44,24.04,21.13,31.19-.07,1.46-.32,2.98-2.05,3.43-6.38,1.68-4.21,5.03-1.73,8.1,2.72,3.37,5.81,6.49,7.81,10.32l-.21.2c-2.1.3-5.04-.88-6.15.92-1.43,2.32,1.51,3.96,2.91,5.51,3.06,3.38,6.54,6.45,9.92,9.58,1.71,1.59,3.76,2.38,5.63.31,4.09-4.54,7.98-9.21,10.51-15.33-1.53.18-2.36.26-3.18.39-2.24.35-4.97,2.08-6.5-.36-1.23-1.96,1.27-3.57,2.37-5.23,2.93-4.41,7.23-8.12,8.2-13.55,8.87-9.42,13.86-20.77,18.69-32.19.94-2.23,1.67-4.53,2.47-6.71,1.75-.15,2.03.9,2.35,1.8,6.44,17.78,14.49,34.94,23.67,51.64,1.85,3.37,2.59,5.65-3.02,5.46-4.71-.16-4.05,2.57-2.82,5.28,3.71,8.22,8.52,15.84,14.65,22.73.11,2.98-2.27,2.93-4.45,3.11-3.97.33-4.16,2.05-2.17,4.77,3.28,4.48,6.43,9.01,10.53,12.96,8.89,8.54,8.84,8.62,16.73-.85.77-.92,2.16-1.73,1.61-3.05-.6-1.45-2.15-.99-3.39-.82-4.22.57-3.95-1.09-2.21-3.64,2.32-3.38,5.58-6.06,7.69-9.67,1.99-3.41,2.57-5.41-2.46-6.12-3.74-.52-4.49-1.87-1.33-4.46,3.24-2.65,6.49-5.36,8.3-9.15,5.61-6.49,8.25-14.36,11.74-22.93,3.6,6.52,5.13,12.84,9.11,18.05,1.77,4,5.07,6.99,8.03,10.16,2.4,2.58,4.89,4.41-.82,6.19-2.87.89-1.4,3.37-.47,5.17,3.03,5.84,6.97,11.12,11.53,16.03,1.83,1.97,4.12,4.3-1.45,4.24-2.41-.03-3.22,1.12-2.25,3.1,1.35,2.74,2.81,5.44,4.36,8.08.91,1.56,2.46,2.6,4.3,1.4,4.02-2.62,6.45-6.46,8.56-10.46.53-1,.18-2.26-1.06-2.44-8.52-1.27-2.45-4.66-1.15-7.13,1.04-1.97,2.8-3.61,3.89-5.56,1.09-1.95,5.51-4.59-1.32-5.47-3.11-.4-.97-2.85-.12-4.28,3.27-5.43,7.91-10.13,10.13-16.13,4.8-5.73,6.96-12.69,10.31-19.97,5.05,11.37,9.76,21.99,14.46,32.6,1.13,3.17,6.81,6.72-1.04,9.17-1.35.42-.67,2.16-.07,3.24,1.8,3.2,3.72,6.35,5.48,9.58,1.48,2.73,6.6,5.35.3,8.49-1.04.52-.28,2.34.49,3.31,2.33,2.89,4.58,5.89,7.26,8.49,2.91,2.82,5.67,2.6,7.5-1.33,2.57-5.54,5.27-11.02,7.81-16.56.89-1.95,2.95-4.1,1.13-6.13-1.7-1.9-4.03.07-6.08.29-1.24.13-2.67.84-3.45-.57-.58-1.05.5-1.84,1.09-2.65.84-1.17,1.79-2.29,2.54-3.5,3.78-6.11,9.26-12.42,9.01-19.05-.2-5.49.07-10.01,2.92-14.58-.26-2.31,5.67-4.85-.31-7.02-.22-.08-.13-1.53.2-2.17,7.16-14.06,10.81-29.07,14.19-44.35,3.22,10.27,6.7,20.31,12.64,29.42,2.24,3.44,4.56,6.84,6.68,10.34,1.46,2.41,5.56,4.66.27,7.67-1.63.93.06,3.43.79,5,2.76,5.89,5.76,11.68,8.61,17.53.93,1.91,2.22,3.91-2.1,3.49-4.23-.41-2.49,2.37-1.88,4.01,2.43,6.47,5.3,12.74,10.43,17.88,1.36,1.8,2.85,3.54,4.03,5.44,1.14,1.85,4.87,2.81,3.68,5.08-1.14,2.17-4.3.81-6.59.63-1.45-.12-3.07-.87-3.93.98-.93,2.01,6.41,15.04,8.78,15.57,1.7.38,2.91-.58,4.13-1.38,6.49-4.27,11.11-10.12,15.67-16,1.27-1.64,1.94-3.49-.77-4.37-3.78-1.23-2.36-2.97-1.02-5.02,2.69-4.12,5.36-8.26,7.76-12.52.95-1.69,1.97-4.44-1.15-4.96-4.52-.75-3.24-2.57-1.92-4.94.89-1.59,1.46-3.33,2.17-5.01,6.08-10.52,10.51-21.7,15.17-33.8,3.22,5.89,4.17,11.69,7.82,16.31,3.38,8.14,8.62,15.24,14.16,22.21,1.55,1.95,5.07,5.11-1.89,4.99-3.72-.07-1.94,2.41-.97,3.74,2.77,3.83,5.79,7.51,8.68,11.27,1.46,1.91,1.58,3.49-1.59,3.52-5.89.05-4.65,2.72-2.51,5.67,1.45,2,2.93,4,4.66,5.78,2.72,2.82,5.53,3.67,8.54.05,2.91-3.49,6.15-6.74,9.18-10.16.93-1.05,2.2-3.19-.15-3.17-8.94.09-2.88-3.76-1.97-6,1.6-3.94,3.54-7.77,5.29-11.65q3.13-6.93-4.71-8.36c-1.68-.31-3.67-.35-4.2-2.26-.45-1.63,1.2-2.42,2.17-3.44.71-.75,1.39-1.51,2.09-2.27,8.89-7.86,14.03-17.81,17.94-28.31,3.17-8.5,5.7-17.2,8.89-26.99,3.69,12,6.01,23.31,12.19,33.34,3.23,7.61,8.87,13.71,14.5,19.83,1.22,1.32,3.44,2.33,2.84,4.42-.63,2.22-3.04,2.06-4.9,2.07-4.79.01-5.5,1.72-3.64,5.63,3.01,6.32,7.03,12,11.8,17.24,1.75,1.92,3.28,4.59,6.89,2.86,2.43-1.16,9.87-10.64,9.2-11.95-.32-.62-1.16-1.22-1.89-1.4-4.18-1.01-2.97-3.09-1.43-5.39,2.62-3.93,5.42-7.79,7.64-11.91,1.44-2.68,3.7-6.05-2.12-7.42-2.4-.57-1.49-2.62-.86-4.07,1.13-2.59,2.48-5.11,3.73-7.65,5.62-11.03,10.64-22.3,15.43-34.67,4.05,6.45,4.25,13.48,9.14,18.43,2.54,6.22,6.83,11.51,10.47,17.16,3.06,4.75,5.03,3.83,7.29-.54,2.41-4.66,1.12-10.75,2.85-14.11,3.64-7.07,3.37-14.41,5.64-21.4,4.26-9.3,6.04-19.22,8.65-29.12,3.11,12.77,9.58,23.97,17.35,34.6.72.98,1.98,2.26.98,3.23-3.67,3.59-1.01,6.58.69,9.72,1.05,5.16,7.72,9.73,1.91,15.65-.26.27.12,1.16.32,1.73,2.55,7.36,6.28,14,12.55,19.39,3.2,2.76,4.93,2.3,6.92-.95,4.73-7.69,8.65-15.73,12.62-23.77,2.31-4.7.08-5.18-4.18-4.59-2,.27-4.73,1.96-5.89-.25-.96-1.83,1.65-3.48,2.93-4.98,4.13-4.83,10.04-8.41,12.04-14.74ZM193.85,296.63c-1.42.47-2.21.75-3.01,1-1.98.62-4.66.65-4.34,3.51.2,1.79.86,3.85,2.79,4.49,2.21.74,3.56-1.22,4.71-2.56,2.27-2.67,4.33-5.5,6.32-8.35,1.14-1.64,2.8-3.47,1.43-5.51-1.41-2.1-3.86-1.28-5.97-1.06-2.56.26-5.39.84-3.41-3.1.64-1.27,1.88-2.78-.63-3.24-2.74-.51-5.75-.9-8.27.46-2.17,1.16-.79,2.95.28,4.1,3.07,3.32,6.34,6.47,10.09,10.27Z"
            style="fill:#091d28; stroke-width:0px;" />
        <path
            d="M76.32,214.58c-1.44,2.92-2.7,5.93-4.38,8.73-1.71,2.86-3.21,5.14,1.34,7.21,2.32,1.06,1.03,3.57.37,5.48-1.62,4.7-5.09,8.38-7.86,12.45-.78,1.15-2.87,3.31-.12,3.76,6.53,1.07,3.16,3.48,1.48,5.96-2.79,4.13-6.42,7.57-9.94,11.13-3.38,3.42-5.97,2.68-8.21-.71-1.78-2.69-4.22-5.12-5.09-9,5.58,1.51,6.49.19,3.7-4.22-3.06-4.85-5.48-10.05-8.03-15.15-.69-1.39-1.86-3.06-.55-4.53,1.4-1.57,3.22-.23,4.87-.06,1.59.16,3.5,1.74,4.67-.17.87-1.42-.99-2.46-1.72-3.63-3.37-5.38-7.47-10.39-9.87-16.26-1.18-2.87-3.07-5.3-.23-8.82,2.05-2.54-2.22-5.26-2.8-8.16,10.13-8.32,13.04-20,17-31.19.64-1.82.56-3.98,2.63-5.34,2.5,1.29,2.35,3.71,2.85,5.73,2.65,10.56,7.7,19.93,15.51,28.06,2.17,2.26,5.96,5.13-1.16,6.2-2.26.34-2.5,2.04-1.7,3.75,1.63,3.47,2.89,7.23,7.25,8.79Z"
            style="fill:#183942; stroke-width:0px;" />
        <path
            d="M637.75,251.29c-1.26,2.55-2.6,5.06-3.73,7.65-.63,1.44-1.54,3.5.86,4.07,5.81,1.37,3.56,4.75,2.12,7.42-2.22,4.12-5.02,7.98-7.64,11.91-1.54,2.3-2.74,4.38,1.43,5.39.73.18,1.58.78,1.89,1.4.67,1.31-6.77,10.79-9.2,11.95-3.61,1.72-5.14-.95-6.89-2.86-4.78-5.24-8.79-10.92-11.8-17.24-1.86-3.91-1.15-5.62,3.64-5.63,1.87,0,4.27.16,4.9-2.07.6-2.09-1.63-3.1-2.84-4.42-5.62-6.12-11.26-12.22-14.5-19.83,1.56-2.83,7.94-5.14,1.15-8.94-.16-.09.16-1.14.45-1.64,8.29-14.21,10.81-30.02,14.81-45.42.03-.12.33-.19,1.11-.6,1.68,6.24,3.44,12.3,6.31,18.07,4.28,8.61,9.17,16.85,14.98,24.64,1.43,1.92,2.6,3.12-.24,5.87-3.75,3.63.76,7.13,3.19,10.28Z"
            style="fill:#183942; stroke-width:0px;" />
        <path
            d="M150.35,228.41c-1.43,1.76-3.03,3.44-4.26,5.32-1.58,2.4-7.76,4.76.05,7.55,2.39.86.46,3.64-.52,5.34-3.69,6.39-8.57,12.01-13.87,17.16,1.35,3.04,5.22-.19,6.12,2.49.85,2.52-1.18,4.61-2.12,6.79-6.11,14.12-10.93,14.69-21.31,2.65-1.33-1.54-3.38-3.07-2.63-5.24.96-2.76,3.97-1.78,6.19-2.16,1.85-.32,4.33.22,5.05-1.91.63-1.85-1.63-2.61-2.74-3.76-2.03-2.09-4.31-4-6.12-6.24-1.64-2.03-4.3-4.11-3.38-6.86,1.07-3.2,4.83-.06,7.23-1.98-1.24-3.59-4.02-6.42-6.66-9.17-3.99-4.15-6.17-7.78.96-10.92,1.65-1.16,2.93-2.42,1.95-4.58-.4-.88-.97-1.99-.71-2.8,4.25-13.66,8.62-27.28,13.05-41.19,2.45,1.08,2.2,3.34,2.93,5.07,2.9,6.94,5.92,13.83,10.58,19.99,1.64,2.16,4.4,4.33,1.05,7.27-.4.35-.27,1.62.07,2.25,2.73,5.12,3.85,11.1,9.1,14.91Z"
            style="fill:#183942; stroke-width:0px;" />
        <path
            d="M357.16,272.47c-2.22,6-6.87,10.69-10.13,16.13-.86,1.43-3,3.87.12,4.28,6.83.88,2.41,3.52,1.32,5.47-1.09,1.95-2.86,3.59-3.89,5.56-1.3,2.47-7.38,5.86,1.15,7.13,1.24.19,1.59,1.44,1.06,2.44-2.11,4-4.54,7.84-8.56,10.46-1.84,1.2-3.38.16-4.3-1.4-1.55-2.65-3.01-5.34-4.36-8.08-.97-1.98-.17-3.13,2.25-3.1,5.57.06,3.28-2.27,1.45-4.24-4.55-4.91-8.5-10.19-11.53-16.03-.93-1.79-2.4-4.27.47-5.17,5.71-1.78,3.23-3.62.82-6.19-2.96-3.17-6.27-6.16-8.03-10.16,3.55-1.75,4.49-5.25,6.3-8.14,1.12-1.79,1.09-3.48-1.67-4.13-3.08-.73-3.41-2.47-1.32-4.32,7.75-6.85,12.1-15.53,15.92-24.53.22-.53.72-.95,1.4-1.81,3.35,3.87,3.96,8.35,5.97,12.2,2.87,5.48,6.19,10.59,10.86,14.87,2.77,2.54,4.7,4.68-.83,6.25-2.8.8-2.19,2.67-.98,4.3,2.08,2.8,4.33,5.48,6.51,8.22Z"
            style="fill:#183942; stroke-width:0px;" />
        <path
            d="M755.45,222.07c-1.99,6.33-7.9,9.91-12.04,14.74-1.28,1.5-3.89,3.15-2.93,4.98,1.16,2.21,3.89.52,5.89.25,4.26-.59,6.49-.1,4.18,4.59-3.96,8.04-7.89,16.07-12.62,23.77-2,3.25-3.72,3.71-6.92.95-6.26-5.39-10-12.03-12.55-19.39-.2-.57-.58-1.46-.32-1.73,5.81-5.92-.86-10.49-1.91-15.65,2.7-5.26,5.39-10.51,8.09-15.77.87-1.69,1.79-3.77.25-5.09-2.98-2.56-.75-4.44.59-6.25,7.62-10.35,13.86-21.26,16.85-33.82,3.38,16.49,9.01,32.31,13.44,48.42Z"
            style="fill:#183942; stroke-width:0px;" />
        <path
            d="M556.96,270.99c-.7.76-1.38,1.52-2.09,2.27-.97,1.03-2.62,1.81-2.17,3.44.53,1.91,2.52,1.96,4.2,2.26q7.82,1.44,4.71,8.36c-1.76,3.89-3.69,7.71-5.29,11.65-.91,2.24-6.97,6.09,1.97,6,2.35-.02,1.08,2.12.15,3.17-3.02,3.41-6.27,6.66-9.18,10.16-3.01,3.62-5.82,2.77-8.54-.05-1.73-1.79-3.21-3.79-4.66-5.78-2.14-2.95-3.38-5.62,2.51-5.67,3.17-.03,3.05-1.61,1.59-3.52-2.89-3.76-5.9-7.44-8.68-11.27-.97-1.33-2.75-3.8.97-3.74,6.96.12,3.44-3.04,1.89-4.99-5.54-6.97-10.79-14.07-14.16-22.21,7.37-9.05,10.79-19.86,15.58-30.7,4.17,3.52,5.26,8.15,7.42,12.04,2.98,5.36,6.63,10.32,9.67,15.61.83,1.44,6.45,4.34-.83,5.13-1.37.15-.68,1.6-.16,2.46,1.28,2.12,2.83,4.03,5.09,5.36Z"
            style="fill:#183942; stroke-width:0px;" />
        <path
            d="M416.82,263.29c-2.85,4.57-3.12,9.09-2.92,14.58.24,6.63-5.24,12.94-9.01,19.05-.75,1.22-1.7,2.33-2.54,3.5-.59.81-1.67,1.6-1.09,2.65.78,1.41,2.21.7,3.45.57,2.05-.22,4.38-2.18,6.08-.29,1.82,2.02-.24,4.17-1.13,6.13-2.54,5.55-5.24,11.03-7.81,16.56-1.82,3.93-4.58,4.15-7.5,1.33-2.69-2.6-4.93-5.6-7.26-8.49-.78-.97-1.53-2.79-.49-3.31,6.31-3.15,1.19-5.77-.3-8.49-1.75-3.22-3.68-6.37-5.48-9.58-.61-1.08-1.29-2.82.07-3.24,7.85-2.46,2.17-6,1.04-9.17,4.85-4.04,8.06-8.62,5.39-14.93-.58-1.37-.07-2.32.63-3.33,7.23-10.42,13.87-21.11,17.7-33.29,2.36,8.02,4.72,16.04,7.1,24.06.68,2.29,1,4.84,4.07,5.7Z"
            style="fill:#183942; stroke-width:0px;" />
        <path
            d="M185.8,260.91c-2-3.84-5.08-6.95-7.81-10.32-2.48-3.07-4.66-6.41,1.73-8.1,1.73-.46,1.98-1.97,2.05-3.43-1.05-8.22,2.97-15.06,7.14-21.79,2.93-4.73,4.84-9.82,7.2-16.78,4.73,15.37,8.95,29.12,13.18,42.87-.97,5.43-5.26,9.14-8.2,13.55-1.11,1.66-3.6,3.27-2.37,5.23,1.53,2.44,4.26.71,6.5.36.82-.13,1.65-.2,3.18-.39-2.52,6.12-6.42,10.8-10.51,15.33-1.87,2.07-3.91,1.28-5.63-.31-3.38-3.13-6.86-6.2-9.92-9.58-1.4-1.55-4.34-3.19-2.91-5.51,1.11-1.8,4.05-.62,6.15-.92,0,0,.34.11.34.11l-.13-.31Z"
            style="fill:#183942; stroke-width:0px;" />
        <path
            d="M497.19,278.58c-.71,1.67-1.29,3.42-2.17,5.01-1.32,2.37-2.61,4.19,1.92,4.94,3.11.52,2.09,3.27,1.15,4.96-2.39,4.27-5.07,8.4-7.76,12.52-1.34,2.05-2.76,3.79,1.02,5.02,2.72.88,2.05,2.73.77,4.37-4.57,5.88-9.18,11.73-15.67,16-1.23.81-2.44,1.76-4.13,1.38-2.36-.53-9.71-13.56-8.78-15.57.86-1.85,2.48-1.1,3.93-.98,2.3.18,5.46,1.54,6.59-.63,1.19-2.27-2.54-3.24-3.68-5.08-1.17-1.9-2.67-3.63-4.03-5.44,2.1-2.76,8.65-3.77,4.08-9.21-.8-.95.77-2.12,1.51-3.08,2.09-2.72,4.89-5.19,1.97-9.03-1.12-1.47.72-2.96,1.66-4.25,2.78-3.81,5.84-7.44,7.42-11.9.44-1.23.87-2.98,2.81-2.81,1.5.13,1.59,1.71,2.15,2.75,2.28,4.25,3.69,9.12,9.24,11.03Z"
            style="fill:#183942; stroke-width:0px;" />
        <path
            d="M294.13,274.46c-1.81,3.79-5.06,6.51-8.3,9.15-3.17,2.59-2.41,3.93,1.33,4.46,5.03.71,4.46,2.71,2.46,6.12-2.11,3.61-5.37,6.28-7.69,9.67-1.74,2.55-2.01,4.2,2.21,3.64,1.24-.17,2.79-.62,3.39.82.55,1.32-.84,2.13-1.61,3.05-7.89,9.47-7.84,9.39-16.73.85-4.11-3.95-7.26-8.48-10.53-12.96-1.99-2.72-1.8-4.44,2.17-4.77,2.18-.18,4.55-.13,4.45-3.11,4.39-.97,7.56-2.43,2.45-6.4-1.57-1.22-1.4-2.44-.63-3.7,4.61-7.56,7.43-15.84,11.36-23.67.53-1.06.96-2.55,2.44-2.53,2,.02,1.79,1.99,2.49,3.13,3.39,5.53,5.04,12.04,10.75,16.27Z"
            style="fill:#183942; stroke-width:0px;" />
        <path
            d="M688.56,216.15c-2.28,6.99-2.01,14.33-5.64,21.4-1.73,3.37-.44,9.46-2.85,14.11-2.26,4.37-4.23,5.29-7.29.54-3.64-5.65-7.93-10.94-10.47-17.16,1.97-1.83,4.02-3.6,5.88-5.53.98-1.02,2.31-2.92,1.03-3.69-5.79-3.47-.53-5.24,1.03-7.67,2.42-3.76,4.7-7.6,7.03-11.42.61-.99.74-2.53,2.39-2.44,1.54.08,1.78,1.52,2.33,2.57,1.75,3.36,2.77,7.15,6.56,9.27Z"
            style="fill:#183942; stroke-width:0px;" />
        <path
            d="M193.85,296.63c-3.75-3.79-7.02-6.95-10.09-10.27-1.06-1.15-2.44-2.94-.28-4.1,2.52-1.36,5.53-.96,8.27-.46,2.5.46,1.26,1.97.63,3.24-1.98,3.94.85,3.36,3.41,3.1,2.11-.21,4.56-1.03,5.97,1.06,1.37,2.04-.29,3.86-1.43,5.51-1.99,2.86-4.06,5.68-6.32,8.35-1.14,1.35-2.5,3.3-4.71,2.56-1.93-.64-2.59-2.7-2.79-4.49-.32-2.86,2.35-2.89,4.34-3.51.8-.25,1.59-.53,3.01-1Z"
            style="fill:#183942; stroke-width:0px;" />
        <path d="M30.75,192.65c-.39-1.1-.08-1.43,1.08-.84-.36.28-.72.56-1.08.84Z"
            style="fill:#d4813b; stroke-width:0px;" />
        <polygon points="185.8 260.91 185.93 261.22 185.59 261.11 185.8 260.91"
            style="fill:#fedd80; stroke-width:0px;" />
    </g>
    <text x="40" y="60" font-size="24" fill="#dff6ff" font-family="sans-serif" font-weight="bold">${t.toUpperCase()}</text>
</svg>
