<svg class="tile-svg" xmlns="http://www.w3.org/2000/svg" viewBox="0 0 800 400">
    <g id="c">
        <path
            d="M800,400v-81.34c-3.67-2.83-7.12-5.5-10.56-8.16-.36.06-.72.12-1.08.17,1.13,2.43,2.25,4.87,3.38,7.3-.26.03-.51.06-.77.09-4.06-4.08-10.87-7.54-11.13-12.44-.4-7.48-2.64-14.94-4.55-22.38-.21-.82-.4-1.65-.62-2.58,3.17,1.88,19.93,25.66,25.34,35.43v-23.95c-13.34-12.71-29.25-24.88-46.53-36.76,6.22,7.08,13.07,14.05,18.67,21.22,1.11,1.43,1.2,2.78.81,4.22-1.54,5.65-3.02,11.3-4.55,16.96-.11.4-.35.8-.63,1.41-2.22-1.19-2.19-2.62-4.41-3.65,3.27,5.77,4.15,11.53.8,17.34-1.15-.16-1.15-.65-1.45-1.01-3.96-4.65-7.4-9.31-8.93-14.28-6.49-21.15-18.23-41.82-32.62-62.22-.64-.91-1.26-1.82-2.26-2.7,6.08,26.74,11.47,53.48,13.58,80.36-7.71-12.18-16.58-24.18-27.01-35.99,5.48,13.97,10.24,27.96,13.64,42.2-1.37-.31-1.42-.75-1.7-1.11-3.35-4.3-6.63-8.61-10-12.91-.74-.94-.92-1.89-1.02-2.87-1.24-11.93-2.65-23.85-6.09-35.7-.17-.57-.03-1.19-1.78-2.05-3.8,9.47-5.97,18.65-8.77,27.9-.55-.64-1.26-1.27-1.64-1.93-10.78-19.06-26.48-37.33-48.09-54.65-.48-.38-.88-.79-1.35-1.17-.24-.19-.5-.38-.8-.56-.15-.09-.31-.17-.48-.26-.16-.08-.34-.15-.52-.22-.2,1.14.99,2.15,1.72,3.19,12.14,17.39,22.14,34.99,29.12,52.9,1.16,2.96.67,5.78-1.03,8.63-.95,1.59-1.7,3.2-2.92,4.81-5.13-5.62-9.58-11.29-15.06-16.82-.38,1.33.31,2.61.78,3.88,2.84,7.86,5.75,15.72,8.65,23.57.36.97.26,1.92-.17,2.89-1.34,2.98-2.58,5.98-3.94,9.15-1.35-.44-1.29-.92-1.46-1.33-4.36-11.13-9.66-22.18-15.11-33.22-1.92-3.89-1.12-7.83-1.59-11.75-.67-5.5-1.02-11-2.08-16.49-.09-.45-.22-.91-.74-1.38-4.79,7.3-7.53,14.77-11.02,22.23-1.81-11.71-3.61-23.42-5.42-35.12-.31,0-.62,0-.93,0-2.92,15.38-6.15,30.74-8.24,46.15-.31,0-.62.01-.93.02-3.17-8.58-6.33-17.16-9.5-25.75-.33.01-.66.02-.99.03-1.35,16.92-1.65,33.84.03,51.04-1.38-.58-1.44-1.1-1.73-1.56-2.27-3.67-4.66-7.32-7.45-10.92-.63-.81-.74-1.63-.76-2.46-.31-14.87-2.58-29.67-8.14-44.36-2.99-7.91-6.83-15.73-11.99-23.43-.18-.26-.25-.54-.37-.81-3.48-4.56-6.97-9.13-10.45-13.7h0s0,0,0,0c-1.39-1.09-2.4-2.25-3.45-3.41-1.05-1.16-2.13-2.33-3.66-3.42-.92.47-.29.86-.11,1.23,7.28,14.87,12.31,29.87,14.66,45.04.25,1.59-.01,3.12-.85,4.67-4.84,8.97-9.59,17.95-14.37,26.92-.23.44-.5.87-1.07,1.29.58-18.68.95-37.35-1.37-56-.28-.01-.56-.02-.85-.03-2.37,7.41-4.8,14.82-7.1,22.24-2.32,7.47-4.62,14.95-6.72,22.43-2.1,7.48-3.94,14.97-5.93,22.6-1.91-.56-1.52-1.33-1.55-2-.52-9.76-.89-19.52-1.53-29.28-.9-13.78-1.98-27.56-2.99-41.34-.03-.4-.13-.8-.68-1.21-3.76,18.73-7.51,37.46-11.27,56.19-.32.04-.63.08-.95.11-7.05-6.36-14.09-12.72-21.39-19.3-.99.9-.19,1.41.12,1.9,4.93,7.91,9.88,15.82,14.92,23.72.82,1.29.91,2.51.16,3.81-2.37,4.09-4.55,8.19-6.82,12.29-.24.44-.6.87-1.34,1.31-1.58-6.03-2.13-12.09-4.57-18.07-5.61,11.73-8.88,23.58-11.44,35.47-.27,0-.53.01-.8.02-.45-.74-.8-1.49-1.37-2.21-4.19-5.32-3.05-10.71-1.82-16.17,3.86-17.07,3.08-34.1-3.5-51.05-2.91-7.49-6.85-14.88-12.06-22.15-.19-.26-.41-.52-.97-.75.99,5.67,2.16,11.32,2.57,16.99.41,5.69.43,11.38-.17,17.07-.6,5.71-1.48,11.41-3.41,17.11-7.84-13.83-15.66-27.64-25.4-41.6-.84.85-.52,1.37-.41,1.87,4.2,19.02,7.39,38.08,12.17,57.08.92,3.68,2.05,7.35,2.96,11.03.82,3.34-2.28,6.41-3.89,9.64-8.05-11.74-14.49-23.6-21.15-35.65-1.2.69-.88,1.21-.88,1.69.09,9.49.33,18.97,2.02,28.43.21,1.17-.11,2.3-.7,3.44-1.22,2.34-2.41,4.68-3.97,7.01-.06-8.28.18-16.54-1.04-24.79-.27-.02-.53-.03-.8-.05-1.86,3.28-3.71,6.57-5.57,9.85,8.47-26.62,8.93-53.11-5.71-79.44,2.96,27.03-6.6,53.45-20.81,79.67-2.2-18.43-3.05-36.89-8-55.34-1.34.39-1.13.85-1.28,1.24-6.77,18.11-11.11,36.32-12.79,54.65-.12,1.3-.8,2.53-2.13,3.75,3.83-35.75-10.33-70.07-44.57-102.81.33.72.65,1.44,1,2.16.37.77.75,1.54,1.15,2.31,10.02,19.69,17.68,39.53,20.12,59.69,2.03,16.78.25,33.48-6.42,50.06-.22.54.12,1.49-1.52,1.47-1.58-.02-1.21-.97-1.37-1.52-1.95-6.75-3.83-13.5-5.73-20.25-.45-1.6.74-3.12,1.28-4.67,2.04-5.9,4.16-11.8,6.22-17.7.22-.63.27-1.28-.16-1.99-2.22,2.61-4.44,5.23-6.66,7.84-.55.65-1.05,1.31-1.66,1.96-.42.45-.49,1.18-1.88,1.15-1.53-.04-1.19-.78-1.35-1.24-.89-2.61-1.7-5.22-2.57-7.83-5.7-17.04-13.03-33.96-22.17-50.73-.51-.94-1.03-1.89-2.04-2.81.34,2.1.66,4.21,1.04,6.31,3.75,21.09,5.28,42.22,7.21,63.34.43,4.71.94,9.43,1.55,14.14.21,1.59-1.04,2.97-3.28,4.39-3.09-6.13-6.19-12.25-9.28-18.38-.26,0-.52,0-.78,0,.28,3.23-2.23,6.2-4.51,9.21.33-3.4.73-6.8.99-10.2,1.07-14.25.48-28.49-2.08-42.72-1.62-9-3.98-17.96-7.1-26.88-.06-.18,0-.37,0-.55-.22-.37-.41-.73-.58-1.1-.21-.46-.38-.92-.46-1.39-.05-.28-.07-.56-.06-.85-1.64-3.61-3.26-7.23-4.91-10.84-1.05-2.3-2.15-4.6-3.23-6.91-.75-1.41-1.5-2.83-2.25-4.24-1.04.4-.76.93-.74,1.43.71,18.22,2.4,36.44,2.03,54.67-.37,18.42-2.97,36.79-8.8,55.06-.14.44-.05.91-1.21,1.51-8.83-23.82-15.7-47.53-24.97-71.11-1.37,13.62-1.26,27.25-1.05,40.87l-.8.1-6.74-7.3c-.29.03-.58.07-.87.1,2.99,8.31,6.31,16.61,7.71,25.03-3.02-5.41-6.03-10.83-9.05-16.24-.29,0-.59.01-.88.02v8.33c-.34,0-.67.02-1.01.03-5.73-14.99-12.61-29.88-21.23-44.61-.29.01-.58.02-.88.03,1.41,18.61,2.82,37.22,4.24,55.82l-.73.06c-.56-.95-1.17-1.89-1.67-2.84-8.94-16.8-20.89-33.22-34.26-49.46-11.71-14.22-24.67-28.24-37.94-42.21-1.39-1.47-2.92-2.91-4.26-4.38-.45-.49-.87-.99-1.26-1.49-.34-.26-.69-.52-1.03-.78-.14.02-.27.04-.41.06,2.42,4.4,4.84,8.8,7.26,13.2,1.85,1.69,2.43,3.54,3.5,5.32,10.18,16.93,20.84,33.81,30.3,50.82.37.67.71,1.34.74,2.08-19.63-20.27-46.69-38.65-77.37-56.12,2.68,2.25,5.3,4.52,8.06,6.75,24.22,19.61,44.69,39.86,57.1,61.48,1.19,2.07,2.19,4.15,3.24,6.23.7,1.39-.16,2.77-.45,4.14-1.79,8.38-3.7,16.76-5.58,25.14-.06.27-.2.53-.39,1.01-1.97-1.09-1.98-2.2-2.12-3.27-1.1-8.74-3.68-17.41-7.18-26.03-.27-.67-.62-1.34-1.31-2.02-1.24,3.95-1.42,7.95-3.58,11.91-7.83-11.4-15.66-22.79-23.49-34.19-.32.02-.65.05-.97.07.08.67.12,1.33.26,2,2.29,11.11,5.1,22.19,8.82,33.22,1.06,3.15-.86,6.26-1.5,9.39-.2,1-.27,2.02-1.41,3.32-1.21-3.52-2.26-6.71-3.41-9.88-2.41-6.63-5.4-13.21-8.91-19.75-1.72-3.21-2.88-6.46-3.86-9.71-.44-1.47-3.05-2.3-3.85-3.64-5.44-9.05-11.83-17.99-18.63-26.87-.45-.59-.98-1.17-1.83-1.72,3.62,14.7,8.56,29.32,12.01,44.01-.48.05-.96.1-1.44.15-4.95-5.1-9.9-10.21-14.86-15.31-.29.04-.59.08-.88.12.33.85.62,1.71,1,2.55,3.22,7.22,6.42,14.45,9.72,21.67.8,1.74-.81,3.24-1.74,4.89-1.56-.45-.43-1.27-2.35-1.81-3.31,5.9-6.56,11.69-9.81,17.47-1.59-.06-1.39-.53-1.55-.84-4.41-8.35-8.48-16.73-11.74-25.17-1.19-3.07.47-6.18,1.06-9.26,1.71-8.81,3.7-17.6,5.55-26.4.12-.58.58-1.18-.37-2.21-4.72,6.96-8.31,13.65-12.79,20.28-6.23-15.31-10.75-30.69-15.71-46.06-1.25,1.26-1.05,2.59-1.23,3.87-2.6,19.28-3.22,38.56.45,57.83.84,4.38,1.97,8.75,2.96,13.12.38,1.68-.58,3.31-1.05,4.96-1.31,4.64-2.68,9.27-4.06,14-.94-.25-.84-.62-1.07-.93-4.85-6.34-3.52-12.89-3.67-19.4-.07-3.01-.3-6.01-.49-9.02-.05-.71-.27-1.42-.42-2.13-.27,0-.54-.02-.81-.03-1.73,3.1-3.46,6.2-5.19,9.3-.28,0-.55,0-.83,0-1.38-2.16-2.68-4.33-4.16-6.48-1.43-2.07-2.37-4.22-4.2-6.24v101.33c.43.08,1.02.11,1.86.11,266.05-.02,532.09,0,798.14,0Z"
            style="fill:#92cd62; stroke-width:0px;" />
        <path
            d="M795.08,201.8c-3.57-3.04-6.54-6.14-9.69-9.21-3.21-3.13-6.53-6.25-9.91-9.35-3.34-3.06-6.69-6.12-10.27-9.12-3.56-2.99-6.7-6.09-11.37-8.81,17.25,21.41,32.53,43.02,39.88,65.52-8.54-9.89-19.42-19.3-30.69-28.74-1.24.58-.61,1.03-.43,1.45,2.17,5.1,4.36,10.19,6.56,15.28.36.83.5,1.64.07,2.48-.97,1.9-1.84,3.81-2.82,5.7-.78,1.51-1.67,3-2.52,4.5-.35-.01-.71-.02-1.06-.03-1.57-15.87-4.03-31.71-9.05-47.45-.34,0-.69-.01-1.03-.02-3,12.78-6.01,25.56-9.01,38.34-.29,0-.57,0-.86,0-.34-5.16-.62-10.33-1.05-15.49-.43-5.17-.92-10.35-1.57-15.52-.66-5.22-1.41-10.43-2.36-15.64-.93-5.09-2.16-10.17-3.26-15.26-.4,0-.79.01-1.19.02-5.56,19.42-9.35,38.91-11.79,58.48-5.88-12.93-13.46-25.62-23.91-38.01.21,6.21,1.93,12.37,2.28,18.88-4.68-3.52-3.83-7.19-6.26-10.61-1.91,7.98-3.82,15.95-5.74,23.93-.35,0-.7,0-1.05,0-5.98-6.21-11.95-12.42-18.04-18.75-.91.56-.41.98-.24,1.35,3.61,8.18,7.05,16.38,10.98,24.53,2.67,5.53,6.04,11,3.19,16.71-.19.38.23.85-1.28,1.24-10.13-18.1-22.83-35.87-27.12-54.43-5.71,18.9.23,37.61,4.16,56.36-15.07-20.59-29.26-41.27-43.35-62.24-1.71,1.76-2.1,3.46-2.95,5.08-2.42,4.65-4.62,9.32-6.97,13.98-.23.45-.02,1.2-1.52,1.21-1.16.01-1.23-.69-1.62-1.09-3.39-3.45-6.7-6.92-10.05-10.38-2.36-2.44-4.75-4.88-7.13-7.32-.31.8-.08,1.53.33,2.24,4.46,7.67,8.97,15.34,13.38,23.02.64,1.11,1.66,2.21,1.16,3.4-1.17,2.78-2.11,5.57-3.54,8.33-.75,1.45-.65,3-2.65,4.38-5.92-13.67-12.42-27.25-21.19-40.63.31,3.02.05,6.01.31,9,.81,9.47,1.6,18.95,2.39,28.42.08.93-.21,1.85-.65,2.76-2.44,5.03-4.86,10.06-7.33,15.08-.06.13-.11.27-.16.4-.15.41-.38.81-1.5,1.01.12.27.2.54.37.81,5.16,7.7,9,15.53,11.99,23.43,5.56,14.69,7.83,29.49,8.14,44.36.02.84.13,1.66.76,2.46,2.8,3.6,5.18,7.25,7.45,10.92.28.46.35.98,1.73,1.56-1.68-17.2-1.38-34.12-.03-51.04.33-.01.66-.02.99-.03,3.17,8.58,6.33,17.16,9.5,25.75.31,0,.62-.01.93-.02,2.09-15.41,5.33-30.77,8.24-46.15.31,0,.62,0,.93,0,1.81,11.71,3.61,23.42,5.42,35.12,3.49-7.46,6.23-14.93,11.02-22.23.51.48.65.93.74,1.38,1.06,5.49,1.41,10.99,2.08,16.49.48,3.92-.33,7.86,1.59,11.75,5.45,11.04,10.75,22.09,15.11,33.22.16.41.11.89,1.46,1.33,1.36-3.17,2.6-6.17,3.94-9.15.44-.97.53-1.92.17-2.89-2.89-7.86-5.8-15.71-8.65-23.57-.46-1.28-1.16-2.56-.78-3.88,5.47,5.52,9.93,11.2,15.06,16.82,1.22-1.61,1.97-3.22,2.92-4.81,1.71-2.85,2.19-5.66,1.03-8.63-6.99-17.91-16.98-35.51-29.12-52.9-.73-1.04-1.92-2.05-1.72-3.19h0c.19.07.36.14.52.22.17.08.33.17.48.26.3.18.56.36.8.56.48.38.87.79,1.35,1.17,21.61,17.31,37.31,35.58,48.09,54.65.37.66,1.08,1.29,1.64,1.93,2.79-9.24,4.97-18.43,8.77-27.9,1.76.86,1.62,1.48,1.78,2.05,3.45,11.86,4.85,23.78,6.09,35.7.1.97.29,1.93,1.02,2.87,3.37,4.3,6.65,8.61,10,12.91.27.35.32.8,1.7,1.11-3.4-14.24-8.16-28.23-13.64-42.2,10.43,11.81,19.3,23.81,27.01,35.99-2.11-26.88-7.5-53.62-13.58-80.36,1,.88,1.62,1.79,2.26,2.7,14.39,20.4,26.13,41.07,32.62,62.22,1.53,4.97,4.97,9.64,8.93,14.28.3.35.29.85,1.45,1.01,3.34-5.8,2.47-11.57-.8-17.34,2.22,1.02,2.19,2.45,4.41,3.65.28-.61.52-1.01.63-1.41,1.52-5.65,3.01-11.31,4.55-16.96.39-1.43.3-2.79-.81-4.22-5.61-7.17-12.46-14.14-18.67-21.22,17.28,11.88,33.19,24.05,46.53,36.76v-114.12c-3.71-5.78-8.09-11.48-13.23-17.1,4.17,13.58,7.74,27.17,8.32,40.89ZM624.78,221.22c-5.05-3.94-5.03-8.21-4.73-12.52.22-3.06.04-6.13.39-9.2,2.22,7.72,4.98,15.4,7.36,23.32-2.45-.41-2.38-1.09-3.02-1.59ZM636.83,233.68s-.03-.02-.04-.02c-.07,0-.14-.02-.18-.04-.04-.02-.02-.06-.03-.1.07.04.14.09.21.13.03,0,.05,0,.08.01,0,0-.04.01-.04.01Z"
            style="fill:#1d7755; stroke-width:0px;" />
        <path
            d="M8.36,311.27c.28,0,.55,0,.83,0,1.73-3.1,3.46-6.2,5.19-9.3.27,0,.54.02.81.03.14.71.37,1.42.42,2.13.2,3.01.42,6.01.49,9.02.16,6.5-1.17,13.06,3.67,19.4.23.31.13.68,1.07.93,1.38-4.73,2.76-9.36,4.06-14,.46-1.65,1.43-3.28,1.05-4.96-1-4.37-2.13-8.74-2.96-13.12-3.68-19.27-3.05-38.55-.45-57.83.17-1.29-.02-2.61,1.23-3.87,4.96,15.37,9.47,30.75,15.71,46.06,4.48-6.63,8.07-13.32,12.79-20.28.96,1.03.49,1.62.37,2.21-1.85,8.8-3.84,17.6-5.55,26.4-.6,3.08-2.25,6.19-1.06,9.26,3.26,8.44,7.33,16.82,11.74,25.17.17.32-.04.78,1.55.84,3.25-5.78,6.5-11.57,9.81-17.47,1.92.54.79,1.36,2.35,1.81.93-1.65,2.53-3.15,1.74-4.89-3.31-7.22-6.5-14.44-9.72-21.67-.38-.85-.67-1.7-1-2.55.29-.04.59-.08.88-.12,4.95,5.1,9.9,10.21,14.86,15.31.48-.05.96-.1,1.44-.15-3.45-14.69-8.4-29.31-12.01-44.01.85.55,1.38,1.13,1.83,1.72,6.8,8.88,13.19,17.82,18.63,26.87.8,1.34,3.41,2.17,3.85,3.64.98,3.25,2.14,6.5,3.86,9.71,3.5,6.54,6.49,13.12,8.91,19.75,1.16,3.18,2.2,6.36,3.41,9.88,1.14-1.31,1.2-2.33,1.41-3.32.64-3.13,2.56-6.23,1.5-9.39-3.72-11.04-6.53-22.12-8.82-33.22-.14-.66-.18-1.33-.26-2,.32-.02.65-.05.97-.07,7.83,11.4,15.66,22.79,23.49,34.19,2.16-3.96,2.34-7.96,3.58-11.91.68.67,1.03,1.34,1.31,2.02,3.5,8.62,6.08,17.29,7.18,26.03.13,1.06.14,2.17,2.12,3.27.19-.48.33-.74.39-1.01,1.88-8.38,3.79-16.76,5.58-25.14.29-1.37,1.15-2.75.45-4.14-1.04-2.08-2.05-4.16-3.24-6.23-12.41-21.62-32.88-41.87-57.1-61.48-2.76-2.23-5.38-4.5-8.06-6.75,30.68,17.47,57.74,35.85,77.37,56.12-.03-.74-.37-1.41-.74-2.08-9.46-17.01-20.12-33.89-30.3-50.82-1.07-1.78-1.66-3.63-3.5-5.32-1.92,1.51-1.65,3.22-2.49,4.83-.25.47.13,1.03-1.34,1.55-4.04-12.13-8.03-24.13-12.02-36.13,1.65-.15,1.76.32,2.09.61,6.12,5.25,11.68,10.61,17.26,15.97.8.76.74,1.52.38,2.31-.16.35-.06.86-1.07.92-1.11.07-1.17-.47-1.46-.79-2.24-2.45-4.43-4.91-6.68-7.37-.37-.41-.47-.91-2.01-1.19-.12,2.36,2.24,4.54,1.51,6.82h0c.39.5.82,1,1.26,1.49,1.34,1.48,2.87,2.92,4.26,4.38,13.27,13.97,26.23,27.99,37.94,42.21,13.37,16.24,25.32,32.66,34.26,49.46.51.95,1.11,1.89,1.67,2.84l.73-.06c-1.41-18.61-2.82-37.22-4.24-55.82.29-.01.58-.02.88-.03,8.62,14.73,15.5,29.62,21.23,44.61.34,0,.67-.02,1.01-.03v-8.33c.29,0,.59-.01.88-.02,3.02,5.41,6.03,10.83,9.05,16.24-1.4-8.42-4.72-16.72-7.71-25.03.29-.03.58-.07.87-.1l6.74,7.3.8-.1c-.21-13.62-.32-27.25,1.05-40.87,9.28,23.57,16.14,47.28,24.97,71.11,1.16-.6,1.07-1.08,1.21-1.51,5.83-18.27,8.43-36.64,8.8-55.06.37-18.23-1.32-36.45-2.03-54.67-.02-.5-.3-1.03.74-1.43-2.13-2.04-2.97-4.23-4.28-6.37-3.12-5.07-5.18-10.15-4.65-15.45.49-4.84.52-9.71-.47-14.56-.07-.36.21-.83-1.1-1.09-2.49,3.07-3.09,6.31-6.39,9.33-2.59-3.81-5.17-7.62-7.76-11.42-.28.03-.56.07-.84.1,0,.18-.03.36,0,.54,1.17,5.34,2.46,10.68,3.48,16.02.32,1.69,1.24,3.39.33,5.11-1.53,2.88-3.54,5.72-4.44,8.67-.17.56-.18,1.2-1.8,1.81-2.15-3.84-4.22-7.54-6.3-11.24-.28.02-.56.04-.84.06-.1.26-.26.52-.28.79-.33,5.88.32,11.75.87,17.61.47,4.99,1.26,9.95-1.21,14.91-1.13,2.26-1.57,4.57-2.35,6.86-.1.28.23.66-1.06.87-.82-7.7-1.49-15.35-2.48-22.99-.99-7.61-2.2-15.21-4.94-22.77-4.67,10.37-7.64,20.81-10.52,31.28-.04-11.7-.47-23.37-4.81-35.09-1.53.47-1.44.97-1.66,1.4-2.06,4.11-4.02,8.23-6.14,12.34-5.06,9.8-9.59,19.64-13.7,29.53-.25.61.19,1.71-1.79,1.65-1.75-.05-1.38-1.12-1.49-1.79-.98-6-2.1-11.99-4.28-17.94-.73-2-2.08-4.01-1.26-6.05,3.07-7.61,5.79-15.25,8.15-22.9.11-.36.6-.77-.54-1.29-7.8,9.09-15.46,18.01-23.11,26.93-.35-.03-.7-.06-1.05-.08,1.58-10.78-.06-21.49-2.77-32.41-1.67.56-1.61,1.06-1.84,1.5-5.44,10.14-10.86,20.29-16.32,30.43-.25.47-.09,1.16-1.48,1.28-1.43.12-1.79-.58-2.4-.98-6.2-4.01-12.36-8.03-18.51-12.05-2.05-1.34-4.67-2.54-5.16-4.26-.62-2.2-1.44-4.4-2.22-6.59-.18-.52-.04-1.1-1.15-1.57-.63.29-.56.62-.57.93-.04,1.39-.05,2.78-.11,4.16-.01.31.11.71-.85.8-.72.07-1.12-.24-1.5-.46-.58-.33-1.01-.72-1.65-1.03-1.41-.67-1.94-1.69-4.64-1.99,7.92,4.3,10.14,9.1,7.4,14.55-4.49-6.06-8.13-12.05-13.44-18.05-.8.6-.57.96-.5,1.32.57,2.62,1.18,5.25,1.7,7.87,2.31,11.56,4.52,23.13,6.94,34.69.72,3.42-1.22,6.64-3.3,9.94-6.36-17.95-15.29-35.6-28.98-52.79,4.41,19.32,9.04,38.61,11.05,58.01-5.76-17.56-14.09-34.88-23.93-52.08-.09,1.77.27,3.52.54,5.26.99,6.18,2.11,12.36,2.87,18.55.69,5.59,1.75,11.17,1.71,16.76-.01,1.88-1.61,3.6-2.92,5.38-5.18-21.2-7.53-42.44-11.61-63.64-3.65,16.8-8.19,33.55-9.59,50.54-1.53-.3-1.54-.66-1.8-.95-2.5-2.81-4.85-5.64-7.49-8.42-5.49-5.78-11.24-11.52-17.41-17.18-.43-.39-.8-.8-1.37-1.15v10.29c.56.41.75.89,1.02,1.34,6.21,10.35,11.72,20.76,16.91,31.21.64,1.29.52,2.54-.24,3.84-1.23,2.11-2.15,4.25-3.21,6.37-.26.52-.23,1.09-1.5,1.66-4.24-5.15-7.85-10.25-12.98-15.09v67.81c1.83,2.02,2.77,4.16,4.2,6.24,1.48,2.15,2.78,4.32,4.16,6.48Z"
            style="fill:#1d7755; stroke-width:0px;" />
        <path
            d="M556.97,211.5c.13-5.46.1-10.91-.39-16.37-.85-9.64-3.46-19.18-7.08-28.68-.45-1.19-.44-2.46-2.11-3.58-2.12,12.88-6.25,25.63-10.52,38.38-.33.01-.67.03-1,.04-8.48-9.05-16.97-18.1-25.68-27.4-.91.66-.62.92-.47,1.19,5.91,9.86,11.89,19.7,17.72,29.57,2.55,4.31,7.03,8.52,3.74,13.15-.59.83-.52,1.74-.87,2.61-.19.47,0,1.03-1.52,1.51-5.36-6.79-10.01-13.61-17.74-20.32-.16.54-.29.68-.22.8,2.6,4.64,4.36,9.34,6.31,14.03.97,2.34,2.32,4.68.89,7.14-2.03,3.5-3.53,7.05-5.3,10.58-.57,1.14-1.27,2.28-1.9,3.41-.41,0-.83,0-1.24,0-.12-18.35-5.51-36.35-18.61-53.84.02,2.33.53,4.65.93,6.96.42,2.4.8,4.8,1.08,7.2.28,2.35.49,4.71.59,7.07.1,2.33.02,4.67.02,7-.34,0-.68,0-1.01,0-.24-.25-.55-.49-.72-.74-4.83-7.01-10.7-13.87-16.83-20.69-1.89-2.1-4.79-4.06-5.28-6.38-.49-2.3-.99-4.61-1.54-6.91-.11-.47.17-1.03-1.18-1.35-1.06.56-.72,1.25-1.18,1.85-.39.5-.03,1.29-1.61,1.37-1.41.07-1.54-.67-2.03-1.1-4.76-4.15-9.49-8.3-14.26-12.44-.37-.32-.52-.79-1.78-.8-.05.18-.16.28-.1.35,5.42,6.55,9.36,13.28,13.78,19.95,1.27,1.92,2.06,3.82,1.35,5.86-1.51,4.34-2.59,8.72-3.87,13.07-.08.29.17.68-1.22.84-6.58-9.81-14.65-19.39-24.43-28.69-.74.58-.22,1.06.03,1.54,3.77,7.37,7.21,14.76,10.25,22.19.3.74.45,1.46.06,2.2-1.81,3.43-3.57,6.86-5.39,10.29-.25.47-.28,1.02-1.46,1.34-1.11-.29-1.02-.8-1.23-1.22-3.16-6.47-6.28-12.95-9.42-19.43-1.4-2.89-2.57-5.68-.75-8.74,3.44-5.78,5.82-11.67,8.59-17.51.31-.65.79-1.32.47-2.05-1.47.18-1.6.7-1.98,1.09-5.17,5.34-10.34,10.68-15.45,16.03-3.93,4.11-7.75,8.23-11.69,12.34-.35.36-.67,1.24-1.79.88-2.55-.8-1.73.31-1.8.55-.89,2.86-2.81,5.59-5.28,8.27-3.5,3.78-6.71,7.62-10.07,11.43-.34.39-.41.88-2.12,1.18,7.61-17.62,16.66-34.88,25.43-52.19-13.85,14.06-27.68,28.1-38.31,42.7-3.18-11.49-5.91-22.96-10.73-34.32-1.46,13.12-2.93,26.24-4.4,39.41-1.87-.17-1.98-.71-2.4-1.1-2.22-2.01-4.14-4.08-6.6-6.03-2.5-1.99-3.07-4.05-3.23-6.27-.47-6.61-1.67-13.21-3.73-19.77-.1-.33.13-.77-1.49-.93-1.55,3-3.09,6-4.64,9-.3-.02-.6-.05-.9-.07.91-4.04,1.81-8.09,2.8-12.46-1.36.59-1.43,1.01-1.67,1.4-1.76,2.82-3.49,5.63-5.29,8.44-.33.52-.19,1.19-1.51,1.47-1.58.33-1.54-.78-2.97-.74-.28.61.3,1.12.7,1.64.98,1.27.93,2.54.22,3.83-3.02,5.49-6.01,10.99-9.03,16.48-.16.29-.02.66-1.29.88-1.72-4.64-1.47-9.35-3.68-13.91-.33,0-.67-.02-1-.03-3.83,7.54-7.65,15.09-11.48,22.63l-.77-.06c-1.45-21.08-2.9-42.17-4.35-63.25-.45,0-.89,0-1.34,0-5.56,27.93-11.13,55.86-16.69,83.78-.37-.09-.66-.19-.89-.3-.38-.18-.6-.38-.78-.57,0,0,0,0-.01-.01-.29-.31-.49-.61-1.11-.83,0,.18-.06.37,0,.55,3.12,8.92,5.48,17.88,7.1,26.88,2.56,14.22,3.16,28.46,2.08,42.72-.26,3.4-.65,6.8-.99,10.2,2.28-3.01,4.8-5.98,4.51-9.21.26,0,.52,0,.78,0,3.09,6.13,6.19,12.25,9.28,18.38,2.24-1.42,3.49-2.8,3.28-4.39-.61-4.71-1.12-9.43-1.55-14.14-1.93-21.12-3.45-42.26-7.21-63.34-.37-2.1-.69-4.21-1.04-6.31,1.01.92,1.53,1.87,2.04,2.81,9.14,16.77,16.47,33.68,22.17,50.73.87,2.61,1.68,5.23,2.57,7.83.16.46-.18,1.2,1.35,1.24,1.39.03,1.46-.7,1.88-1.15.61-.64,1.11-1.3,1.66-1.96,2.22-2.61,4.44-5.23,6.66-7.84.43.71.39,1.36.16,1.99-2.06,5.9-4.18,11.8-6.22,17.7-.53,1.55-1.73,3.07-1.28,4.67,1.9,6.75,3.78,13.5,5.73,20.25.16.55-.21,1.5,1.37,1.52,1.64.02,1.3-.93,1.52-1.47,6.67-16.58,8.45-33.28,6.42-50.06-2.44-20.16-10.1-40-20.12-59.69-.39-.77-.78-1.54-1.15-2.31-.34-.72-.67-1.44-1-2.16,34.24,32.74,48.39,67.06,44.57,102.81,1.33-1.22,2.01-2.46,2.13-3.75,1.69-18.33,6.03-36.54,12.79-54.65.14-.39-.06-.85,1.28-1.24,4.95,18.45,5.8,36.9,8,55.34,14.2-26.22,23.77-52.64,20.81-79.67,14.64,26.33,14.19,52.82,5.71,79.44,1.86-3.28,3.71-6.57,5.57-9.85.27.02.53.03.8.05,1.21,8.25.98,16.51,1.04,24.79,1.56-2.33,2.75-4.67,3.97-7.01.59-1.13.91-2.27.7-3.44-1.69-9.46-1.94-18.95-2.02-28.43,0-.48-.32-1,.88-1.69,6.66,12.05,13.1,23.92,21.15,35.65,1.61-3.23,4.71-6.3,3.89-9.64-.91-3.68-2.03-7.35-2.96-11.03-4.77-19-7.97-38.06-12.17-57.08-.11-.5-.43-1.03.41-1.87,9.74,13.97,17.56,27.78,25.4,41.6,1.94-5.7,2.81-11.4,3.41-17.11.6-5.69.58-11.38.17-17.07-.41-5.67-1.58-11.32-2.57-16.99.57.24.79.49.97.75,5.2,7.26,9.15,14.66,12.06,22.15,6.58,16.95,7.36,33.98,3.5,51.05-1.24,5.46-2.38,10.85,1.82,16.17.57.72.92,1.47,1.37,2.21.27,0,.53-.01.8-.02,2.57-11.89,5.84-23.74,11.44-35.47,2.44,5.99,3,12.05,4.57,18.07.74-.44,1.1-.87,1.34-1.31,2.27-4.1,4.46-8.2,6.82-12.29.75-1.3.67-2.52-.16-3.81-5.04-7.9-9.99-15.81-14.92-23.72-.31-.5-1.11-1-.12-1.9,7.3,6.58,14.34,12.94,21.39,19.3.32-.04.63-.08.95-.11,3.76-18.73,7.51-37.46,11.27-56.19.55.41.65.81.68,1.21,1.01,13.78,2.09,27.56,2.99,41.34.64,9.76,1.01,19.52,1.53,29.28.04.67-.35,1.44,1.55,2,1.99-7.63,3.83-15.12,5.93-22.6,2.1-7.48,4.41-14.96,6.72-22.43,2.3-7.42,4.73-14.82,7.1-22.24.28.01.56.02.85.03,2.31,18.65,1.95,37.32,1.37,56,.56-.42.83-.85,1.07-1.29,4.78-8.97,9.53-17.95,14.37-26.92.84-1.55,1.1-3.08.85-4.67-2.35-15.17-7.38-30.17-14.66-45.04-.18-.37-.81-.76.11-1.23,1.53,1.1,2.61,2.26,3.66,3.42,1.05,1.16,2.06,2.32,3.45,3.41h0c.2-.36.53-.71.58-1.08.46-3.51,1.16-7.02,1.25-10.53ZM509.69,239.11l.12-.1.13.09h-.25Z"
            style="fill:#1d7755; stroke-width:0px;" />
        <path
            d="M271.23,230.12c.09-3.28.24-6.55.18-9.83-.11-5.64-.77-11.27-.88-16.91,0-.35.24-.74-.59-1.03-.99.18-.89.61-1.08.93-1.58,2.83-3.11,5.67-4.66,8.51-.12.21-.22.43-.32.64-.32.64-.68,1.28-1.63,1.83h0c1.08,2.3,2.18,4.6,3.23,6.91,1.65,3.61,3.28,7.23,4.91,10.84.78-.59.82-1.24.84-1.89Z"
            style="fill:#1d7755; stroke-width:0px;" />
        <path
            d="M774.66,280.66c.22.94.41,1.76.62,2.58,1.91,7.45,4.15,14.9,4.55,22.38.27,4.91,7.07,8.37,11.13,12.44.26-.03.51-.06.77-.09-1.13-2.43-2.25-4.87-3.38-7.3.36-.06.72-.12,1.08-.17,3.44,2.66,6.89,5.32,10.56,8.16v-2.56c-5.41-9.77-22.17-33.55-25.34-35.43Z"
            style="fill:#1d7755; stroke-width:0px;" />
        <path
            d="M18.78,209.44c2.64,2.78,4.99,5.62,7.49,8.42.26.29.27.65,1.8.95,1.4-16.98,5.94-33.73,9.59-50.54,4.08,21.2,6.43,42.45,11.61,63.64,1.31-1.78,2.91-3.5,2.92-5.38.03-5.6-1.02-11.18-1.71-16.76-.77-6.19-1.88-12.37-2.87-18.55-.28-1.74-.63-3.49-.54-5.26,9.85,17.2,18.18,34.53,23.93,52.08-2.01-19.4-6.64-38.69-11.05-58.01,13.69,17.19,22.61,34.85,28.98,52.79,2.09-3.29,4.02-6.51,3.3-9.94-2.42-11.56-4.63-23.13-6.94-34.69-.52-2.63-1.13-5.25-1.7-7.87-.08-.36-.3-.72.5-1.32,5.31,6,8.96,11.99,13.44,18.05,2.74-5.45.53-10.25-7.4-14.55,2.7.31,3.23,1.33,4.64,1.99.65.31,1.07.69,1.65,1.03.38.22.78.52,1.5.46.95-.09.84-.5.85-.8.06-1.39.06-2.78.11-4.16,0-.31-.06-.64.57-.93,1.12.47.97,1.05,1.15,1.57.78,2.19,1.6,4.39,2.22,6.59.48,1.72,3.1,2.92,5.16,4.26,6.15,4.02,12.31,8.04,18.51,12.05.61.4.97,1.09,2.4.98,1.39-.11,1.23-.81,1.48-1.28,5.45-10.14,10.87-20.29,16.32-30.43.23-.44.17-.93,1.84-1.5,2.71,10.92,4.35,21.63,2.77,32.41.35.03.7.06,1.05.08,7.66-8.92,15.31-17.84,23.11-26.93,1.14.52.65.93.54,1.29-2.36,7.66-5.08,15.29-8.15,22.9-.82,2.05.53,4.05,1.26,6.05,2.17,5.95,3.29,11.94,4.28,17.94.11.66-.26,1.73,1.49,1.79,1.98.06,1.54-1.04,1.79-1.65,4.1-9.88,8.63-19.73,13.7-29.53,2.12-4.11,4.08-8.23,6.14-12.34.22-.43.13-.94,1.66-1.4,4.34,11.71,4.78,23.38,4.81,35.09,2.89-10.47,5.85-20.91,10.52-31.28,2.73,7.56,3.95,15.16,4.94,22.77.99,7.64,1.66,15.29,2.48,22.99,1.29-.2.96-.58,1.06-.87.78-2.29,1.23-4.61,2.35-6.86,2.47-4.95,1.68-9.91,1.21-14.91-.55-5.87-1.21-11.74-.87-17.61.01-.26.18-.52.28-.79.28-.02.56-.04.84-.06,2.07,3.7,4.15,7.4,6.3,11.24,1.62-.61,1.63-1.25,1.8-1.81.89-2.95,2.9-5.79,4.44-8.67.91-1.72,0-3.42-.33-5.11-1.02-5.35-2.3-10.68-3.48-16.02-.04-.18,0-.36,0-.54.28-.03.56-.07.84-.1,2.59,3.81,5.17,7.62,7.76,11.42,3.3-3.01,3.9-6.25,6.39-9.33,1.31.26,1.03.73,1.1,1.09.99,4.85.96,9.72.47,14.56-.54,5.3,1.53,10.39,4.65,15.45,1.32,2.14,2.15,4.33,4.28,6.37.75,1.41,1.5,2.83,2.25,4.24.96-.55,1.32-1.19,1.63-1.83.11-.21.21-.43.32-.64,1.55-2.84,3.08-5.67,4.66-8.51.18-.33.09-.75,1.08-.93.83.29.58.68.59,1.03.11,5.64.77,11.27.88,16.91.06,3.28-.09,6.56-.18,9.83-.02.65-.06,1.3-.84,1.89-.01.28.01.57.06.85.08.47.25.93.46,1.39.17.37.36.74.58,1.1.62.21.82.52,1.11.83,0,0,0,0,.01.01.18.2.4.39.78.57.23.11.52.21.89.3,5.56-27.93,11.13-55.86,16.69-83.78.45,0,.89,0,1.34,0,1.45,21.08,2.9,42.17,4.35,63.25l.77.06c3.83-7.54,7.65-15.09,11.48-22.63.33,0,.67.02,1,.03,2.21,4.56,1.96,9.27,3.68,13.91,1.27-.22,1.13-.59,1.29-.88,3.02-5.49,6.01-10.99,9.03-16.48.71-1.29.76-2.56-.22-3.83-.4-.52-.98-1.03-.7-1.64,1.43-.04,1.4,1.07,2.97.74,1.32-.28,1.18-.95,1.51-1.47,1.8-2.81,3.53-5.63,5.29-8.44.24-.39.31-.81,1.67-1.4-.98,4.37-1.89,8.42-2.8,12.46.3.02.6.05.9.07,1.55-3,3.09-5.99,4.64-9,1.62.16,1.39.6,1.49.93,2.06,6.56,3.25,13.15,3.73,19.77.16,2.22.73,4.28,3.23,6.27,2.45,1.95,4.37,4.02,6.6,6.03.43.39.53.92,2.4,1.1,1.47-13.17,2.93-26.29,4.4-39.41,4.82,11.36,7.55,22.83,10.73,34.32,10.63-14.6,24.46-28.64,38.31-42.7-8.76,17.31-17.82,34.58-25.43,52.19,1.71-.3,1.78-.8,2.12-1.18,3.36-3.81,6.57-7.64,10.07-11.43,2.48-2.68,4.39-5.41,5.28-8.27.08-.24-.75-1.35,1.8-.55,1.12.35,1.44-.52,1.79-.88,3.94-4.11,7.76-8.23,11.69-12.34,5.11-5.35,10.28-10.69,15.45-16.03.38-.4.51-.91,1.98-1.09.32.73-.16,1.4-.47,2.05-2.77,5.85-5.15,11.74-8.59,17.51-1.82,3.05-.66,5.84.75,8.74,3.14,6.48,6.26,12.95,9.42,19.43.21.42.12.93,1.23,1.22,1.18-.32,1.21-.86,1.46-1.34,1.82-3.43,3.59-6.86,5.39-10.29.39-.74.24-1.47-.06-2.2-3.05-7.43-6.48-14.82-10.25-22.19-.25-.48-.77-.96-.03-1.54,9.78,9.3,17.84,18.88,24.43,28.69,1.38-.16,1.13-.55,1.22-.84,1.28-4.36,2.36-8.73,3.87-13.07.71-2.04-.08-3.94-1.35-5.86-4.42-6.67-8.36-13.4-13.78-19.95-.06-.08.04-.18.1-.35,1.26,0,1.42.48,1.78.8,4.77,4.15,9.49,8.3,14.26,12.44.5.43.62,1.18,2.03,1.1,1.59-.08,1.22-.87,1.61-1.37.46-.6.12-1.29,1.18-1.85,1.35.33,1.06.89,1.18,1.35.55,2.3,1.05,4.6,1.54,6.91.49,2.32,3.39,4.28,5.28,6.38,6.14,6.82,12,13.68,16.83,20.69.18.26.48.5.72.74.34,0,.68,0,1.01,0,0-2.33.08-4.67-.02-7-.1-2.36-.31-4.71-.59-7.07-.28-2.4-.66-4.8-1.08-7.2-.4-2.32-.9-4.63-.93-6.96,13.11,17.5,18.5,35.5,18.61,53.84.41,0,.83,0,1.24,0,.64-1.14,1.33-2.27,1.9-3.41,1.77-3.53,3.27-7.08,5.3-10.58,1.43-2.46.08-4.8-.89-7.14-1.95-4.69-3.71-9.39-6.31-14.03-.07-.12.06-.26.22-.8,7.74,6.71,12.39,13.53,17.74,20.32,1.51-.49,1.33-1.04,1.52-1.51.35-.87.28-1.78.87-2.61,3.29-4.63-1.19-8.85-3.74-13.15-5.84-9.86-11.81-19.71-17.72-29.57-.16-.26-.44-.53.47-1.19,8.72,9.3,17.2,18.35,25.68,27.4.33-.01.67-.03,1-.04,4.26-12.75,8.39-25.5,10.52-38.38,1.67,1.11,1.66,2.39,2.11,3.58,3.62,9.5,6.23,19.04,7.08,28.68.48,5.46.52,10.91.39,16.37-.08,3.51-.78,7.02-1.25,10.53-.05.36-.38.72-.58,1.08h0c3.48,4.57,6.97,9.13,10.45,13.7,1.12-.2,1.35-.6,1.5-1.01.05-.14.09-.27.16-.4,2.47-5.02,4.89-10.05,7.33-15.08.44-.91.73-1.83.65-2.76-.79-9.47-1.58-18.95-2.39-28.42-.26-2.99,0-5.98-.31-9,8.77,13.38,15.27,26.95,21.19,40.63,2-1.38,1.9-2.93,2.65-4.38,1.43-2.75,2.37-5.55,3.54-8.33.5-1.19-.52-2.3-1.16-3.4-4.41-7.68-8.92-15.35-13.38-23.02-.41-.71-.64-1.43-.33-2.24,2.38,2.44,4.76,4.87,7.13,7.32,3.35,3.46,6.66,6.92,10.05,10.38.39.4.46,1.11,1.62,1.09,1.5-.02,1.29-.76,1.52-1.21,2.35-4.66,4.55-9.33,6.97-13.98.85-1.63,1.24-3.33,2.95-5.08,14.08,20.97,28.27,41.64,43.35,62.24-3.93-18.76-9.87-37.47-4.16-56.36,4.29,18.56,16.99,36.33,27.12,54.43,1.52-.39,1.09-.86,1.28-1.24,2.85-5.71-.53-11.18-3.19-16.71-3.93-8.15-7.37-16.35-10.98-24.53-.17-.37-.67-.79.24-1.35,6.09,6.33,12.07,12.54,18.04,18.75.35,0,.7,0,1.05,0,1.91-7.98,3.82-15.95,5.74-23.93,2.42,3.42,1.58,7.09,6.26,10.61-.34-6.51-2.06-12.67-2.28-18.88,10.44,12.39,18.03,25.08,23.91,38.01,2.43-19.58,6.22-39.06,11.79-58.48.4,0,.79-.01,1.19-.02,1.1,5.08,2.33,10.17,3.26,15.26.95,5.21,1.71,10.42,2.36,15.64.65,5.17,1.14,10.35,1.57,15.52.43,5.16.71,10.32,1.05,15.49.29,0,.57,0,.86,0,3-12.78,6.01-25.56,9.01-38.34.34,0,.69.01,1.03.02,5.02,15.74,7.49,31.58,9.05,47.45.35.01.71.02,1.06.03.84-1.5,1.73-2.99,2.52-4.5.98-1.9,1.85-3.8,2.82-5.7.43-.83.29-1.65-.07-2.48-2.2-5.09-4.39-10.19-6.56-15.28-.18-.42-.81-.88.43-1.45,11.27,9.44,22.15,18.84,30.69,28.74-7.35-22.5-22.62-44.1-39.88-65.52,4.67,2.73,7.81,5.83,11.37,8.81,3.58,3.01,6.93,6.06,10.27,9.12,3.38,3.1,6.7,6.21,9.91,9.35,3.14,3.07,6.12,6.17,9.69,9.21-.57-13.72-4.15-27.31-8.32-40.89,5.15,5.62,9.53,11.33,13.23,17.1V0H0v191.12c.57.35.94.75,1.37,1.15,6.18,5.66,11.92,11.39,17.41,17.18Z"
            style="fill:#0b5242; stroke-width:0px;" />
        <path
            d="M12.98,245.83c1.27-.57,1.24-1.15,1.5-1.66,1.06-2.12,1.98-4.27,3.21-6.37.75-1.29.88-2.54.24-3.84-5.19-10.45-10.7-20.86-16.91-31.21-.27-.46-.46-.94-1.02-1.34v29.34c5.13,4.84,8.74,9.94,12.98,15.09Z"
            style="fill:#0b5242; stroke-width:0px;" />
        <path
            d="M114.12,206.61c1.54.28,1.64.79,2.01,1.19,2.25,2.45,4.43,4.91,6.68,7.37.29.32.35.85,1.46.79,1-.06.91-.57,1.07-.92.36-.78.41-1.54-.38-2.31-5.58-5.36-11.14-10.72-17.26-15.97-.33-.29-.44-.76-2.09-.61,3.99,12,7.99,24,12.02,36.13,1.47-.52,1.1-1.07,1.34-1.55.84-1.61.56-3.32,2.49-4.83-2.42-4.4-4.84-8.8-7.26-13.2.14-.02.27-.04.41-.06.34.26.69.52,1.03.78.73-2.28-1.63-4.46-1.51-6.82Z"
            style="fill:#0b5242; stroke-width:0px;" />
        <path
            d="M620.05,208.7c-.3,4.31-.33,8.58,4.73,12.52.64.5.58,1.19,3.02,1.59-2.38-7.92-5.14-15.6-7.36-23.32-.35,3.07-.18,6.14-.39,9.2Z"
            style="fill:#0b5242; stroke-width:0px;" />
    </g>
    <text x="40" y="60" font-size="24" fill="#dff6ff" font-family="sans-serif" font-weight="bold">${t.toUpperCase()}</text>
</svg>
