<svg class="tile-svg" xmlns="http://www.w3.org/2000/svg" viewBox="0 0 800 399">
    <g id="c">
        <path
            d="M800,249.23c-3.67-.16-7.35-.29-11.02-.33-14.15-.19-28.41-.71-42.62-1.11-4.1-.11-8.15-.12-11.29-5.18,5.66,0,11.31.08,16.97-.05,1.91-.04,4.54-.4,4.13-2.95-.45-2.8-3.08-1.71-4.8-1.25-11.73,3.11-23.01-1.94-34.62-.82-.03-1.03-.07-2.07-.1-3.1,9.08,0,18.39-1.28,27.19.32,11.64,2.11,23.5,2.31,34.92,2.36,7.09.03,14.17.17,21.25.4v-34.1c-12.11-.65-24.17-.72-36.25-.65-32.82.21-65.55,3.2-98.23,6.33-19.64,1.88-39.4,2.21-58.98,5.08-18.96,2.77-38.47,2.98-56.9,7.63-9.72,2.45-20.5-.52-31.11,6.75,9.41-.42,17.14.21,24.41-1.32,11.87-2.51,23.92-1.9,35.76-2.54,33.87-1.84,67.72-4.34,101.61-5.97,19.83-.95,39.6-.6,59.39-1.1,6.07-.15,12.17,1.01,18.26,1.6,1.34.13,3.07-.04,3.31,1.76.28,2.17-1.49,2.73-3.16,3.05-1.09.21-2.22.15-3.34.21-28.63,1.45-57.25,2.94-85.89,4.26-1.69.08-3.8-.58-4.58.99-5.67,11.39-18.37,9.82-27.42,14.91-4.82,2.71-10.03,4.62-14.42,8.2-8.6,7.02-19.03,6.87-29.36,6.93-1.84.01-3.69.42-6.94.83,5.03,4.49,11.62.22,15.23,5.28-5.7,1.41-11.55,1.7-16.69,1.5-20.82-.8-40.75,6.32-61.44,5.87-6.95-.15-13.94-.59-20.79,1.47-8.02,2.41-14.82-3.81-22.77-3.31-25.8,1.64-51.51,4.53-77.28,6.26-24.28,1.62-47.92,6.55-71.65,10.87-15.83,2.88-31.75,4.66-47.61,7.09-1.84.28-4.35,1.75-4.91-.97-.73-3.51,2.54-2.69,4.55-3.08,7.28-1.44,14.63-2.58,21.81-4.43,11.63-3,23.4-4.89,35.37-5.7,3.08-.21,6.01-.82,9.01-3.32-3.74-2.7-7.89-2.01-11.28-1.4-17.96,3.28-36.14.6-54.2,2.95-31.39,4.08-62.98,6.63-94.48,9.84-1.93.2-4.18.9-4.96-1.62-.76-2.48,1.65-3.25,3.14-4.34,4.87-3.58,10.93-4.77,17.44-7.86-16.7-3.14-31.17,1.39-45.77,4.93-15.27,3.7-30.49,7.73-46.46,6.13-2.26-.23-4.51-.33-6.39,1.22-10.32,8.49-21.88,6.22-33.46,3.91-8.24-1.64-16.32,1.52-24.82-.02-15.75-2.86-31.78-1.2-47.73-1.5v108.88h800v-149.77Z"
            style="fill:#72c531; stroke-width:0px;" />
        <path
            d="M91.33,127.44c11.61.21,23.75,4.23,34.64,1.88,12.48-2.7,24.52-.7,36.68-1.42,15.99-.94,32.16,1.44,48.2.85,8.66-.32,17.67,1.36,26.1-1.84,4.88-1.85,9.96-.23,13.78,1.09,7.97,2.74,15.2.19,22.72-.16,13.53-.64,27.04.42,40.59.1,9.68-.23,19.4-.81,29.06-1.19,4.23-.17,8.5-.02,12.25.88,11.27,2.69,22.48-1,33.89.68,5.35.79,12.46-.77,18.47-.93,6.59-.17,13.43-1.03,20.19.12,8.4,1.42,16.81,3.06,25.28-.85,4.44-2.05,8.75,2.05,13.64,2.07,21.98.1,43.91-2.72,65.88-1.07,22.58,1.7,45.21-.43,67.74.93,28.47,1.72,56.78-2.92,85.22-1.09,18,1.16,36.15-.83,54.04.42,18.04,1.25,36.05-.09,53.94-.04,2.12,0,4.24.03,6.36.05V0H0v128.25c10.77-.26,21.55-.51,32.32-.64,19.67-.23,39.35-.53,59.01-.17Z"
            style="fill:#adf0fd; stroke-width:0px;" />
        <path
            d="M47.73,291.63c8.5,1.54,16.58-1.62,24.82.02,11.58,2.31,23.14,4.57,33.46-3.91,1.89-1.55,4.13-1.45,6.39-1.22,15.97,1.6,31.19-2.43,46.46-6.13,14.59-3.53,29.07-8.06,45.77-4.93-6.5,3.09-12.56,4.28-17.44,7.86-1.48,1.09-3.9,1.87-3.14,4.34.78,2.52,3.02,1.81,4.96,1.62,31.5-3.21,63.09-5.76,94.48-9.84,18.06-2.35,36.25.33,54.2-2.95,3.38-.62,7.54-1.31,11.28,1.4-3,2.5-5.93,3.11-9.01,3.32-11.96.81-23.73,2.71-35.37,5.7-7.17,1.85-14.53,2.99-21.81,4.43-2.01.4-5.28-.42-4.55,3.08.57,2.71,3.08,1.25,4.91.97,15.86-2.43,31.78-4.21,47.61-7.09,23.73-4.32,47.36-9.25,71.65-10.87,25.76-1.72,51.47-4.62,77.28-6.26,7.95-.5,14.75,5.72,22.77,3.31,6.85-2.05,13.84-1.62,20.79-1.47,20.69.45,40.62-6.67,61.44-5.87,5.15.2,11-.09,16.69-1.5-3.61-5.06-10.2-.79-15.23-5.28,3.26-.4,5.1-.82,6.94-.83,10.33-.06,20.76.09,29.36-6.93,4.39-3.59,9.6-5.5,14.42-8.2,9.06-5.09,21.75-3.51,27.42-14.91.78-1.57,2.89-.91,4.58-.99,28.63-1.33,57.26-2.81,85.89-4.26,1.12-.06,2.25,0,3.34-.21,1.67-.32,3.44-.89,3.16-3.05-.24-1.8-1.97-1.63-3.31-1.76-6.09-.59-12.19-1.76-18.26-1.6-19.79.5-39.56.15-59.39,1.1-33.89,1.63-67.74,4.13-101.61,5.97-11.84.64-23.89.04-35.76,2.54-7.27,1.54-15.01.9-24.41,1.32,10.6-7.27,21.39-4.3,31.11-6.75,18.43-4.65,37.94-4.86,56.9-7.63,19.58-2.87,39.34-3.2,58.98-5.08,32.68-3.12,65.41-6.12,98.23-6.33,12.08-.08,24.13,0,36.25.65v-75.49c-2.12-.01-4.24-.04-6.36-.05-17.89-.05-35.9,1.3-53.94.04-17.89-1.24-36.03.74-54.04-.42-28.44-1.83-56.74,2.82-85.22,1.09-22.53-1.36-45.17.76-67.74-.93-21.97-1.65-43.91,1.17-65.88,1.07-4.89-.02-9.19-4.13-13.64-2.07-8.47,3.91-16.88,2.28-25.28.85-6.76-1.14-13.61-.29-20.19-.12-6.01.16-13.12,1.72-18.47.93-11.41-1.68-22.62,2.01-33.89-.68-3.75-.89-8.01-1.04-12.25-.88-9.67.38-19.38.96-29.06,1.19-13.55.32-27.06-.74-40.59-.1-7.52.35-14.76,2.9-22.72.16-3.83-1.32-8.9-2.94-13.78-1.09-8.43,3.2-17.44,1.52-26.1,1.84-16.04.59-32.21-1.79-48.2-.85-12.16.71-24.2-1.28-36.68,1.42-10.89,2.35-23.03-1.66-34.64-1.88-19.66-.36-39.34-.06-59.01.17-10.77.13-21.55.38-32.32.64v91.14c6.33.58,12.61,2.06,18.86,3.39,17.48,3.73,35.38,2.48,52.94,4.95,1.01.14,2,.49,4.17,1.04-3.84,3.37-7.45,3.81-11.25,3.81-20.9,0-41.8.16-62.69-.06-.68,0-1.36-.04-2.04-.09v57.69c15.95.31,31.98-1.36,47.73,1.5Z"
            style="fill:#9edb5b; stroke-width:0px;" />
        <path
            d="M64.73,232.58c3.8,0,7.41-.44,11.25-3.81-2.17-.55-3.16-.9-4.17-1.04-17.57-2.47-35.46-1.22-52.94-4.95-6.26-1.34-12.54-2.81-18.86-3.39v13.05c.68.05,1.36.08,2.04.09,20.89.22,41.79.06,62.69.06Z"
            style="fill:#72c531; stroke-width:0px;" />
        <path
            d="M743.83,234.75c-8.79-1.59-18.11-.32-27.19-.32.03,1.03.07,2.07.1,3.1,11.61-1.12,22.88,3.93,34.62.82,1.71-.45,4.35-1.55,4.8,1.25.41,2.55-2.22,2.91-4.13,2.95-5.65.13-11.31.05-16.97.05,3.14,5.06,7.19,5.07,11.29,5.18,14.21.4,28.47.92,42.62,1.11,3.68.05,7.35.17,11.02.33v-11.72c-7.08-.23-14.16-.37-21.25-.4-11.42-.05-23.28-.26-34.92-2.36Z"
            style="fill:#9edb5b; stroke-width:0px;" />
    </g>
    <text x="40" y="60" font-size="24" fill="#585858ff" font-family="sans-serif" font-weight="bold">${t.toUpperCase()}</text>
</svg>
