<svg class="tile-svg" xmlns="http://www.w3.org/2000/svg" viewBox="0 0 800 400">
    <g id="c">
        <path d="M102.24,308.36s0,0,0,0c-.02.11-.05.22-.07.33.07.03.14.06.2.09-.05-.14-.08-.28-.13-.42,0,0,0,0,0,0Z"
            style="fill:none; stroke-width:0px;" />
        <path
            d="M264.33,358.31c-1.94-.49-2.55-2.15-2.88-3.99h0c-7.81-.3-15.23-2.21-22.23-5.93,0,0,0,0,0,0-8.4-1.57-16.73-3.43-24.6-7.04,0,0,0,0,0,0h0c-13.54-2.99-27.09-5.98-40.63-8.98-19.92-2.77-39.84-5.54-59.77-8.32h0c-3.19-.11-6.38-.22-9.57-.34-3.91-4.42-.72-10.09-2.27-14.93-.07-.03-.13-.06-.2-.09-.47,2.32-1.32,4.67-1.17,6.94.43,6.21-2.15,8.37-7.73,8.1-6.08-.3-12.18-.12-18.28-.13q-21.47-.04-21.43-22.99s0,0,0,0c0,0,0,0,0,0-3.97,4.45-1.17,9.97-2.12,14.88-.54,2.8,2.07,6.58-2.13,8.33-10.69.8-21.39,1.6-32.08,2.4,0,0,0,0,0,0h0c-.89,0-1.78,0-2.67,0h0s0,0,0,0c-4.85,1.18-9.71,2.37-14.58,3.42v68.86h361.2c-.95-.43-1.9-.85-2.84-1.28-30.9-13.93-60.98-30.65-94.03-38.91Z"
            style="fill:#82be5b; stroke-width:0px;" />
        <path
            d="M0,223.27c5.05-3.34,9.94-7.02,15-10.33,1.92-1.26,3.32-3.43,5.85-3.62h0s0,0,0,0c29.19-15.81,58.16-32.1,87.63-47.29,32.51-16.76,64.86-33.87,97.95-49.42,25.84-12.15,52.39-21.13,79.95-26.93,15.88-3.34,31.98-5.48,48.21-6.15,9.84-5.14,18.49,2.87,27.87,2.92,2.27.01,4.53.82,6.79,1.26,0,0,0,0,0,0,0,0,0,0,0,0,24.53-19.11,51.46-32.98,80.96-40.85,46.36-12.38,92.01-8.73,136.8,8.25,48.15,18.25,93.85,42.62,140.84,63.8,23.73,10.69,47.76,20.52,72.15,29.33V0H0v223.27Z"
            style="fill:#a9e0dd; stroke-width:0px;" />
        <path
            d="M715.02,142.8c-.57-.07-1.21.46-2.25.9.78,6.74,7.03,7.94,10.54,11.8,4.91,5.39,14.98,10.12,11.3,17.97-3.45,7.38-13.58,3.93-20.57,2.16-18.03-4.58-35.03-12.49-52.12-19.95-40.84-17.83-81.37-36.5-122.53-53.46-25.33-10.44-52.15-10.47-78.94-6.96-29.63,3.88-55.49,18.45-82.4,30.85-32.7,15.06-63.84,34.01-98.09,45.26-1.86.61-3.86.78-7.89,1.55,10.43-14.11,23.12-22.4,34.1-32.51,11.72-10.79,24.24-20.6,34.81-32.77-12.04,7.8-24.62,14.4-36.09,23.49-13.69,10.85-28.14,20.62-41.12,32.55-11.76,10.81-23.73,21.37-35.45,32.24-5.19,4.81-8.62,10.98-10.88,17.95-2.77,8.57.27,14.58,8.66,14.81,15.53.43,30.7-1.85,46.15-4.64,24.48-4.43,48.62-12.83,74.13-10.57,11.34,1.01,15.92,9.14,21.02,17.53h0,0c11.5.08,23.01.11,34.51.26,3.17.04,7.12-1.35,8.1,3.93,9.58,1.93,9.11,12.73,14.36,18.53,1.74,1.92,2.49,4.84,3.7,7.3,3.89-11.43,4.83-23.7,9.38-35.01,2.2-5.47,3.49-11.74,9.93-11.96,6.49-.21,7.9,6.84,10.82,11.42.88,1.38,1.37,3.05,2.06,4.65,4.46-1.29,2.23-6.08,4.68-8,1.82-5.7,3.27-11.58,5.56-17.06,2.15-5.15,4.61-10.52,11.57-9.75,5.32.58,2.73-5.76,5.49-7.51,0,0,0,0,0,0,0,0,0,0,0,0,1.36-8.79,2.47-17.59,7.33-25.31,4.58-7.28,9.43-10.23,16.08-2.79,27.22-.14,54.44-.3,81.66-.44,3.02-.02,6.53-.58,5.36,4.76h0s0,0,0,0c3.4-.87,5.85-2.55,8.8,2.77,5.78,10.41,13.27,19.78,20.32,29.36,4.24,5.75,5.18,12.21,5.17,19.16,0,24.78.08,49.55.13,74.33.65.18,1.26.07,1.83-.31,0,0,0,0,0,0,4.18-10.99,11.68-19.67,17.88-29.26,2.36-3.65,5.65-3.33,8.95-3.35,9.4-.07,18.79-.08,28.19-.01,3.73.03,7.45.34,9.8-3.66,0,0,0,0,0,0,0,0,0,0,0,0,1.95-12.44,4.18-24.82,8.75-36.55,1.56-4,3.28-8.54,8.22-8.29,4.32.22,5.78,4.43,7.27,8.11,5.31,13.05,6.26,27.2,9.15,40.86,1.66-5.71,3.12-11.51,5.08-17.1.86-2.47,1.51-6,4.9-6.01,3.44-.02,5.44,2.98,6.66,5.77,3.41,7.79,4.53,16.26,5.67,24.7.47,3.49,1.25,6.94,1.9,10.41,0,0,0,0,0,0,0,0,0,0,0,0,16.75-3.53,30.51,2.76,42.55,14.66,0,0,0,0,0,0,0,0,0,0,0,0,.25-.5.5-1,.76-1.48v-130.65c-27.55-.29-54.73-3.64-81.07-13.66-1.26-.48-2.59-.81-3.91-.97ZM451.37,123.85c-19.37,16.96-41.08,28.35-65.14,31.8-3.96-1-8.04,1.34-9.35-2.46-1.24-3.56,2.59-5.55,4.74-7.52,10.41-9.5,23.74-13.31,35.7-19.74,9.19-4.94,19.43-7.71,29.28-11.17,2.84-1,6.58-1.83,8.42,1.41,2.13,3.74-1.34,5.65-3.66,7.67Z"
            style="fill:#c4f1ee; stroke-width:0px;" />
        <path
            d="M411.91,351.67c-35.31-6.05-70.74-5.09-106.2-2.05-14.78,1.27-29.65,1.62-44.26,4.69.33,1.84.93,3.51,2.88,3.99,33.05,8.26,63.13,24.98,94.03,38.91.95.43,1.9.85,2.84,1.28h293.66c-50.29-8.1-100.16-19.02-150.12-29.22-30.88-6.3-61.79-12.29-92.83-17.61Z"
            style="fill:#c2cd54; stroke-width:0px;" />
        <path
            d="M14.58,326.21c-.14-5.84-.29-11.68-.43-17.52-14.52-9.36-15.39-11.68-11.01-28.5.62-2.39,1.26-4.87,1.28-7.32.07-6.57-.39-13.67,7.4-15.54,7.63-1.83,14.9-1.11,18.55,8.16.37.93,1.33,1.59,2.01,2.37,1.44-5.19,1.87-10.45,1.76-15.88-.21-10.57,6.97-18.33,16.73-18.58,11.77-.3,18.54,5.62,18.72,17.27.11,7.25,1.3,13.97,3.36,20.93,4.65,15.66-3.61,27.41-19.25,28.86,0,0-.12.14-.12.14,0,0,0,0,0,0q-.04,22.95,21.43,22.99c6.09.01,12.2-.16,18.28.13,5.58.27,8.16-1.89,7.73-8.1-.16-2.27.7-4.62,1.17-6.94.02-.11.05-.22.07-.33,0,0,0,0,0,0,.68-8.33-.76-13.78-10.07-16.83-10.92-3.57-14.72-16.19-9.96-27.42,2.07-4.88,2.76-9.31,1.76-14.48-.68-3.48-.77-7.56,1.34-10.45,4.17-5.73,6.82-10.92,5.06-19.03-1.48-6.83,6.5-12.99,13.82-11.77,6.96,1.17,12.88,5.2,11.18,13.51-1.35,6.59.23,10.95,3.99,15.48,2.34,2.82,3.69,6.74,2.68,10.04-2.32,7.57.25,13.87,3.07,20.33h0c19.8-12.36,41.4-4.34,62.13-6.06,1.89-.16,2.53,2.03,2.84,3.87,8.88-2.61,23.85,8.16,24.52,17.76.25,3.54.13,7.1.17,10.65,9.72-5.57,16.46-14.85,24.33-22.66,3.81-3.78,7.35-5.72,12.44-5.69,24.43.13,48.86.16,73.29-.03,5.45-.04,8.05.85,4.08,6.75,2.73-1.57,5.45-3.14,8.18-4.7,0,0,0,0,0,0,.11-.52.17-1.05.17-1.58h0c2.57-12.64,11.02-21.95,16.81-32.72,2.58-4.81,8.86-1.25,13.34-2.32h0c-5.1-8.39-9.68-16.53-21.02-17.53-25.51-2.26-49.65,6.14-74.13,10.57-15.46,2.8-30.62,5.07-46.15,4.64-8.39-.23-11.43-6.24-8.66-14.81,2.25-6.97,5.69-13.14,10.88-17.95,11.72-10.87,23.69-21.43,35.45-32.24,12.98-11.92,27.43-21.7,41.12-32.55,11.48-9.09,24.06-15.7,36.09-23.49,9.42-7.98,18.84-15.95,28.26-23.93,0,0,0,0,0,0-2.26-.44-4.53-1.25-6.79-1.26-9.38-.05-18.03-8.06-27.87-2.92-4.78,6.84-12.82,5.38-19.18,8.07-24.12,10.21-44.17,27.52-66.26,41.22-14.76,9.16-31.15,12.01-47.3,15.12-22.82,4.39-44.55,11.81-64.64,23.65-34.79,20.48-70.46,38.07-110.06,45.05-2.55.45-7.21,4.2-6.29-3.31h0c-2.54.19-3.93,2.36-5.85,3.62-5.06,3.31-9.95,6.99-15,10.33v106.36c4.87-1.05,9.73-2.23,14.58-3.42h0Z"
            style="fill:#adeae5; stroke-width:0px;" />
        <path
            d="M789.88,388.78h0c-9.64,2.12-14.77-.84-13.17-12.45.46-3.34.96-7.12-1.13-10.35-2.12,7.54,3.07,16.1-2.87,23.1,0,0,0,0,0,0-4.03,1.36-8.11,2.22-12.36,1.26-5.4.04-10.94,1.98-16.07-1.4-14.94,1.02-29.76-.55-44.58-2.22h0c-.73-.11-1.46-.22-2.19-.33-22.01-1.76-44.04-3.35-65.77-7.77-20.34-1.97-40.81-2.95-60.59-9.11h0c-13.11.21-25.82-3.08-38.68-5.03,0,0,0,0,0,0h0c-8.1-1.26-16.2-2.52-24.31-3.78-19.06-2.83-38.11-5.66-57.17-8.49,0,0,0,0,0,0h0c-10.97-1.27-22.17-1.23-32.42-6.52,0,0,0,0,0,0,0,0,0,0,0,0-8.62,3.41-16.73-.16-24.97-2.04,0,0,0,0,0,0-.6.01-1.19-.06-1.77-.21,0,0,0,0,0,0h0c-8.67-.06-17.34-.12-26.01-.18-19.89.07-39.79.14-59.68.22h0s-.93.1-.93.1c0,0-.94-.02-.94-.02h0c-21.55,3.72-43.47,1.58-65.05,4.82,0,0,0,0,0,0,0,0,0,0,0,0,7,3.72,14.42,5.63,22.23,5.93h0c14.61-3.08,29.48-3.43,44.26-4.69,35.46-3.04,70.89-3.99,106.2,2.05,31.04,5.32,61.95,11.31,92.83,17.61,49.96,10.2,99.82,21.12,150.12,29.22h145.14v-11.05c-3.35.58-6.71,1.05-10.12,1.34,0,0,0,0,0,0Z"
            style="fill:#eeed9a; stroke-width:0px;" />
        <path
            d="M304.26,303.66c.18-6.76-1.5-9.67-8.43-9.56-23.35.36-46.71.34-70.06,0-5.77-.08-8.96,2.15-10.55,7.29-.09.37-.2.74-.31,1.11,0,.01,0,.02,0,.03h0c-.1,12.94-.19,25.88-.29,38.82,0,0,0,0,0,0,7.88,3.62,16.21,5.47,24.6,7.04,0,0,0,0,0,0,21.58-3.24,43.51-1.1,65.05-4.82-.04-13.3-.37-26.62-.01-39.91Z"
            style="fill:#019482; stroke-width:0px;" />
        <path
            d="M174.16,283.16c-1.52-5.25-5.65-4.17-9.23-4.21-16.21-.19-32.43-.32-48.64-.47,0,0,0,0,0,0,0,0,0,0,0,0-4.01,3.98-.66,9.95-3.42,14.26,0,0,0,0,0,0,2.89,10.31.89,20.87,1.35,31.3,19.92,2.77,39.84,5.54,59.77,8.32.06-16.4.12-32.8.18-49.2Z"
            style="fill:#019481; stroke-width:0px;" />
        <path
            d="M104.61,303.71c-.67-7.06,1.77-10.48,8.26-10.96h0s0,0,0,0c2.76-4.31-.59-10.28,3.42-14.26,0,0,0,0,0,0,2.94-3.58,5.87-7.17,8.81-10.75h0c-2.82-6.46-5.39-12.76-3.07-20.33,1.01-3.3-.34-7.22-2.68-10.04-3.75-4.53-5.34-8.89-3.99-15.48,1.7-8.31-4.21-12.34-11.18-13.51-7.32-1.23-15.31,4.94-13.82,11.77,1.76,8.11-.89,13.3-5.06,19.03-2.11,2.89-2.02,6.97-1.34,10.45,1.01,5.17.31,9.6-1.76,14.48-4.76,11.23-.96,23.85,9.96,27.42,9.32,3.05,10.75,8.5,10.07,16.83,0,0,0,0,0,0,.05.14.09.28.13.42,1.56,4.84-1.64,10.51,2.27,14.93.03-6.67.58-13.4-.04-20.01Z"
            style="fill:#a1ba08; stroke-width:0px;" />
        <path d="M214.91,302.49c.11-.37.22-.74.31-1.11-.11.36-.21.73-.31,1.11Z"
            style="fill:#fdfdfd; stroke-width:0px;" />
        <path
            d="M214.9,302.52c-.05-2.86-.09-5.72-.14-8.57,0,0,0,0,0,0-.05-3.55.07-7.12-.17-10.65-.67-9.59-15.64-20.37-24.52-17.76-5.4,5.77-13.44,8.87-15.91,17.63h0c-.06,16.4-.12,32.8-.18,49.2,13.54,2.99,27.09,5.98,40.63,8.98h0c.1-12.94.19-25.88.29-38.82Z"
            style="fill:#fdfdfd; stroke-width:0px;" />
        <path
            d="M49.04,300.85h0c-5.76.52-9.44-4.1-14.06-6.41-4.12,7.19-9.42,12.73-17.56,14.34-.06,5.81-.11,11.61-.17,17.42,0,0,0,0,0,0,10.69-.8,21.39-1.6,32.08-2.4-.1-7.65-.2-15.3-.29-22.95Z"
            style="fill:#ade8df; stroke-width:0px;" />
        <path
            d="M112.86,292.75h0c-6.49.48-8.92,3.9-8.26,10.96.62,6.6.08,13.33.04,20.01,3.19.11,6.38.22,9.57.34h0c-.47-10.43,1.54-20.99-1.35-31.3Z"
            style="fill:#a2e1d3; stroke-width:0px;" />
        <path
            d="M53.7,300.45v-37.35c-1.23-.06-2.47-.13-3.7-.19-.32,12.64-.64,25.29-.96,37.94,0,0,0,0,0,0h0c.1,7.65.2,15.3.29,22.96,4.19-1.75,1.58-5.53,2.13-8.33.95-4.91-1.85-10.43,2.12-14.88,0,0,0,0,0,0,0,0,.12-.14.12-.14Z"
            style="fill:#8eab23; stroke-width:0px;" />
        <path
            d="M17.41,308.78s0,0,0,0c0-11.31,0-22.61,0-33.92-1.09-.01-2.18-.03-3.27-.04,0,11.29,0,22.58,0,33.87,0,0,0,0,0,0,.14,5.84.29,11.68.43,17.52h0c.89,0,1.78,0,2.67,0h0c.06-5.81.11-11.61.17-17.42Z"
            style="fill:#7f9b09; stroke-width:0px;" />
        <path
            d="M587.01,51.11c-44.8-16.98-90.44-20.63-136.8-8.25-29.5,7.88-56.43,21.74-80.96,40.85,0,0,0,0,0,0-9.42,7.98-18.84,15.95-28.26,23.93-10.57,12.17-23.09,21.98-34.81,32.77-10.99,10.11-23.67,18.4-34.1,32.51,4.03-.78,6.03-.94,7.89-1.55,34.24-11.25,65.39-30.2,98.09-45.26,26.91-12.4,52.77-26.97,82.4-30.85,26.79-3.51,53.61-3.48,78.94,6.96,41.16,16.97,81.69,35.64,122.53,53.46,17.1,7.46,34.09,15.38,52.12,19.95,6.99,1.77,17.11,5.22,20.57-2.16,3.67-7.85-6.4-12.58-11.3-17.97-3.51-3.86-9.76-5.06-10.54-11.8,1.04-.44,1.68-.97,2.25-.9,1.32.16,2.65.49,3.91.97,26.35,10.03,53.53,13.38,81.07,13.66v-13.2c-24.39-8.81-48.42-18.64-72.15-29.33-46.98-21.17-92.69-45.54-140.84-63.8Z"
            style="fill:#fefaf7; stroke-width:0px;" />
        <path
            d="M27.15,212.63c39.6-6.97,75.28-24.56,110.06-45.05,20.1-11.83,41.82-19.26,64.64-23.65,16.14-3.11,32.54-5.96,47.3-15.12,22.08-13.7,42.14-31.01,66.26-41.22,6.36-2.69,14.4-1.24,19.18-8.07-16.22.67-32.33,2.81-48.21,6.15-27.56,5.8-54.11,14.78-79.95,26.93-33.09,15.55-65.43,32.66-97.95,49.42-29.47,15.19-58.44,31.49-87.63,47.29,0,0,0,0,0,0-.92,7.51,3.74,3.76,6.29,3.31Z"
            style="fill:#fcfaf6; stroke-width:0px;" />
        <path
            d="M570.97,205.13h0c.06,54.8.12,109.59.19,164.39h0c19.78,6.16,40.25,7.14,60.59,9.11.23-29.67.45-59.33.68-89-.05-24.78-.14-49.55-.13-74.33,0-6.95-.94-13.41-5.17-19.16-7.05-9.58-14.54-18.95-20.32-29.36-2.95-5.31-5.4-3.64-8.8-2.77,0,0,0,0,0,0-9.16,13.6-19.11,26.6-27.02,41.12ZM597.1,233.48c.1-3.13,1.91-4.34,4.73-4.23,3,.11,4.17,1.94,4.19,4.87.03,3.96,0,7.93,0,11.89h-.05c0,3.6.03,7.21,0,10.81-.03,2.96-1.19,4.7-4.27,4.7-2.85,0-4.27-1.28-4.76-4.31-1.29-7.94-.1-15.82.15-23.73ZM597.13,306.85c-.72-3.43-.18-7.17-.09-10.78.07-2.98.31-5.97,4.19-5.95,3.43.02,4.75,2.12,4.71,5.55-.04,3.6,0,7.21,0,11.74-2.25,3.99,4.4,13.81-4.25,14-8.47.19-3.46-9.41-4.54-14.56Z"
            style="fill:#fdfdfe; stroke-width:0px;" />
        <path
            d="M460.22,246.88c-5.35,34.93-10.54,69.79-9.23,105.35,0,0,0,0,0,0,19.06,2.83,38.11,5.66,57.17,8.49-2.82-44.98-4.63-90.08-12.63-134.5-2.32-12.87-9.94-24.52-7.97-38.41,0,0,0,0,0,0-2.76,1.75-.17,8.09-5.49,7.51-6.96-.76-9.42,4.6-11.57,9.75-2.29,5.48-3.74,11.36-5.56,17.06,2.2,9-3.43,16.39-4.72,24.76Z"
            style="fill:#c2cd54; stroke-width:0px;" />
        <path
            d="M631.75,378.63c21.73,4.42,43.76,6,65.77,7.77.12-29.18.07-58.36.47-87.53.1-7.11-2.2-9.35-8.81-9.26-18.3.25-36.61-.15-54.91-.29,0,0,0,0,0,0,0,0,0,0,0,0-.57.39-1.18.49-1.83.31-.23,29.67-.45,59.33-.68,89Z"
            style="fill:#019482; stroke-width:0px;" />
        <path
            d="M495.53,226.21c8,44.42,9.81,89.52,12.63,134.5,8.1,1.26,16.2,2.52,24.31,3.78h0c-.53-48.6-3.99-96.98-9.44-145.22-.6-5.34-.63-10.76-.92-16.15-4.19-14.35-5.34-29.57-11.15-43.44h0c-6.65-7.44-11.5-4.49-16.08,2.79-4.86,7.73-5.97,16.53-7.33,25.31,0,0,0,0,0,0-1.96,13.89,5.66,25.54,7.97,38.41Z"
            style="fill:#a3bb09; stroke-width:0px;" />
        <path
            d="M418.57,345.7s0,0,0,0c10.25,5.29,21.45,5.25,32.42,6.52h0c-1.31-35.56,3.88-70.42,9.23-105.35,1.28-8.37,6.91-15.75,4.72-24.76-2.44,1.92-.22,6.71-4.68,8-.69-1.59-1.18-3.26-2.06-4.65-2.92-4.58-4.32-11.63-10.82-11.42-6.45.21-7.73,6.49-9.93,11.96-4.55,11.3-5.5,23.58-9.38,35.01-3.17,28.23-6.33,56.46-9.49,84.68Z"
            style="fill:#dbdf81; stroke-width:0px;" />
        <path
            d="M742.22,287.15s0,0,0,0c0,0,0,0,0,0-6.51,13.52-14.14,26.31-14.63,42.5-.43,14.11,4.07,23.34,16.8,27.72h0c5.33-1.05,10.66-2.11,15.99-3.16,0,0,0,0,0,0h0c2.46-3.82,5.3-6.91,10.23-5.97,0,0,0,0,0,0-2.19-14.78-14.56-18.69-25.32-25.5,6.77-1.92,10.58,2.42,15.02,4.54,1.73.83,3.18,3.5,5.24,1.84,1.81-1.46,1.22-4,.38-5.99-1.64-3.86-6.39-7.88-4.49-11.47,4.86-9.21,11.19-17.55,17.96-27.79,1.43,6.46-2.22,8.47-3.47,11.46-1.78,4.24-5.02,7.96-6.05,12.33-1.44,6.1-3.71,14.24,1.24,18.19,3.41,2.72,5.9-5.96,10.12-8.01,2.95-1.43,5.24-4.42,7.82-6.72.32-1.46.64-2.93.96-4.39,3.07-5.73,6.14-11.46,9.21-17.19,0,0,0,0,0,0-12.04-11.9-25.8-18.18-42.55-14.66,0,0,0,0,0,0-3.54,5.79-9.84,7.9-14.46,12.25Z"
            style="fill:#c2ce54; stroke-width:0px;" />
        <path
            d="M522.11,203.13c12.73-.02,25.46-.03,38.19-.05,3.67,0,7.41-.39,10.66,2.05h0c7.92-14.52,17.87-27.52,27.02-41.12h0c1.17-5.34-2.34-4.78-5.36-4.76-27.22.14-54.44.29-81.66.44h0c5.81,13.87,6.96,29.1,11.15,43.44Z"
            style="fill:#65d2b0; stroke-width:0px;" />
        <path
            d="M393.29,296.21c1.32,15.7.29,31.62.31,47.44,0,0,0,0,0,0,0,0,0,0,0,0,8.24,1.89,16.35,5.46,24.97,2.04,0,0,0,0,0,0,3.16-28.23,6.33-56.46,9.49-84.68-1.21-2.46-1.96-5.38-3.7-7.3-5.24-5.8-4.77-16.6-14.36-18.53-13.85,17.78-18.65,38.04-16.72,61.02Z"
            style="fill:#fdfdfd; stroke-width:0px;" />
        <path
            d="M689.17,289.61c6.61-.09,8.9,2.15,8.81,9.26-.39,29.17-.35,58.35-.47,87.53.73.11,1.46.22,2.19.33.03-27.73.4-55.46-.1-83.18-.19-10.25,1.85-18.74,8.17-26.64,4.78-5.98,8.3-13.11,12.38-19.72,0,0,0,0,0,0,0,0,0,0,0,0-6.73-3.06-15.14,3.49-21.06-4.15,0,0,0,0,0,0-2.35,4-6.08,3.69-9.8,3.66-9.4-.07-18.79-.05-28.19.01-3.3.02-6.59-.3-8.95,3.35-6.2,9.59-13.7,18.28-17.88,29.26,0,0,0,0,0,0,18.31.14,36.61.54,54.91.29Z"
            style="fill:#65d2b0; stroke-width:0px;" />
        <path
            d="M799.24,289.56c-3.07,5.73-6.14,11.46-9.21,17.19,3.32-.01,6.65-.03,9.97-.04v-18.62c-.26.48-.51.97-.76,1.48,0,0,0,0,0,0Z"
            style="fill:#65d2af; stroke-width:0px;" />
        <path
            d="M354.06,233.32c-5.78,10.78-14.24,20.09-16.81,32.72,15.53-.11,31.07.02,46.6-.46,6.5-.2,7.93,2.74,7.88,8.97-.19,22.96.03,45.93.1,68.9,0,0,0,0,0,0,.58.15,1.17.22,1.77.21,0,0,0,0,0,0-.02-15.82,1.01-31.74-.31-47.44-1.93-22.98,2.87-43.24,16.72-61.02-.98-5.28-4.92-3.89-8.1-3.93-11.5-.15-23.01-.18-34.51-.26h0c-4.48,1.07-10.77-2.49-13.34,2.32Z"
            style="fill:#65d2b0; stroke-width:0px;" />
        <path
            d="M446.6,114.77c-9.86,3.46-20.1,6.23-29.28,11.17-11.96,6.43-25.29,10.23-35.7,19.74-2.15,1.96-5.98,3.96-4.74,7.52,1.31,3.79,5.4,1.46,9.35,2.46,24.06-3.45,45.77-14.84,65.14-31.8,2.32-2.03,5.79-3.94,3.66-7.67-1.85-3.24-5.58-2.4-8.42-1.41Z"
            style="fill:#fbfaf5; stroke-width:0px;" />
        <path
            d="M720.14,257.18s0,0,0,0c6.41,1.92,7.19,9.12,11.1,13.38,4.95-4-.44-9.07,1.23-13.41,0,0,0,0,0,0-2.89-13.66-3.84-27.81-9.15-40.86-1.5-3.68-2.95-7.89-7.27-8.11-4.94-.25-6.66,4.29-8.22,8.29-4.57,11.73-6.8,24.11-8.75,36.55,0,0,0,0,0,0,5.92,7.64,14.33,1.09,21.06,4.15Z"
            style="fill:#7d9e06; stroke-width:0px;" />
        <path
            d="M731.24,270.56c3.66,5.53,7.32,11.06,10.98,16.59,0,0,0,0,0,0,4.62-4.35,10.92-6.45,14.46-12.25,0,0,0,0,0,0-.64-3.47-1.42-6.91-1.9-10.41-1.14-8.44-2.26-16.91-5.67-24.7-1.22-2.79-3.23-5.79-6.66-5.77-3.39.02-4.03,3.55-4.9,6.01-1.96,5.6-3.42,11.39-5.08,17.1,0,0,0,0,0,0-1.68,4.34,3.72,9.41-1.23,13.41Z"
            style="fill:#68d2af; stroke-width:0px;" />
        <path
            d="M365.89,332.55c5.16-29.1-5.58-50.11-28.81-64.92,0,0,0,0,0,0,0,0,0,0,0,0-2.73,1.57-5.45,3.14-8.18,4.7-6.53,6.21-12.84,12.72-19.68,18.53-3.68,3.12-3.01,6.9-3.04,10.68-.11,13.98-.05,27.97-.05,41.95,19.89-.07,39.79-.14,59.68-.22,0-3.58-.54-7.27.08-10.72ZM340.75,316.29c.13,4.16-.02,7.87-5.57,7.69-5.31-.17-4.37-4.12-4.56-6.8.07-4.67-.26-8.72,5.48-8.41,5.17.28,4.53,4.03,4.64,7.52Z"
            style="fill:#fcfcfd; stroke-width:0px;" />
        <path
            d="M306.19,301.53c.03-3.78-.64-7.56,3.04-10.68,6.84-5.81,13.15-12.31,19.68-18.53,3.97-5.9,1.37-6.8-4.08-6.75-24.43.19-48.86.16-73.29.03-5.09-.03-8.63,1.9-12.44,5.69-7.86,7.81-14.6,17.09-24.33,22.66,0,0,0,0,0,0,.05,2.86.09,5.72.14,8.57h0s0-.02,0-.03c.1-.39.2-.76.31-1.11,1.59-5.14,4.78-7.38,10.55-7.29,23.35.34,46.71.36,70.06,0,6.93-.11,8.61,2.8,8.43,9.56-.35,13.29-.03,26.6.01,39.91h0s.94.02.94.02c0,0,.93-.1.93-.1h0c0-13.99-.05-27.97.05-41.96Z"
            style="fill:#64d2af; stroke-width:0px;" />
        <path
            d="M391.73,274.55c.05-6.23-1.38-9.17-7.88-8.97-15.52.48-31.06.35-46.6.46h0c0,.53-.06,1.06-.17,1.58,0,0,0,0,0,0,23.23,14.82,33.97,35.83,28.81,64.92-.61,3.46-.08,7.14-.08,10.72,8.67.06,17.34.12,26.01.18h0c-.07-22.97-.28-45.93-.1-68.9Z"
            style="fill:#039482; stroke-width:0px;" />
        <path
            d="M34.98,294.44s0,0,0,0c4.62,2.31,8.3,6.93,14.06,6.41,0,0,0,0,0,0,.32-12.65.64-25.29.96-37.94,1.23.06,2.47.13,3.7.19v37.35c15.64-1.45,23.9-13.2,19.25-28.86-2.07-6.96-3.25-13.68-3.36-20.93-.18-11.65-6.95-17.57-18.72-17.27-9.76.25-16.93,8-16.73,18.58.11,5.43-.32,10.7-1.76,15.88-1.38,9.11-4.37,18.39,2.59,26.58Z"
            style="fill:#c2ce54; stroke-width:0px;" />
        <path
            d="M14.15,274.83c1.09.01,2.18.03,3.27.04,0,11.31,0,22.61,0,33.92,0,0,0,0,0,0,8.14-1.62,13.45-7.16,17.56-14.34,0,0,0,0,0,0-6.96-8.19-3.98-17.47-2.59-26.58-.69-.78-1.65-1.44-2.01-2.37-3.65-9.27-10.92-10-18.55-8.16-7.78,1.87-7.32,8.97-7.4,15.54-.03,2.45-.66,4.93-1.28,7.32-4.38,16.83-3.51,19.14,11.01,28.5,0,0,0,0,0,0,0-11.29,0-22.58,0-33.87Z"
            style="fill:#65d2ac; stroke-width:0px;" />
        <path
            d="M116.29,278.48s0,0,0,0c16.22.15,32.43.28,48.64.47,3.58.04,7.71-1.04,9.23,4.21h0c2.47-8.76,10.5-11.85,15.91-17.63-.31-1.84-.95-4.02-2.84-3.87-20.73,1.72-42.33-6.29-62.13,6.06h0c-2.94,3.58-5.87,7.17-8.81,10.75Z"
            style="fill:#66d2b0; stroke-width:0px;" />
        <path
            d="M570.97,205.13h0c-3.25-2.44-6.99-2.05-10.66-2.05-12.73.02-25.46.03-38.19.05.29,5.38.32,10.8.92,16.15,5.45,48.24,8.91,96.62,9.44,145.21,0,0,0,0,0,0,12.86,1.95,25.57,5.24,38.68,5.03h0c-.06-54.8-.12-109.59-.19-164.39Z"
            style="fill:#019382; stroke-width:0px;" />
        <path
            d="M790.03,306.75c-.32,1.46-.64,2.93-.96,4.39,0,3.68-.01,7.36-.02,11.03h0c.02,11.42.03,22.85.05,34.27h0c.26,10.78.52,21.56.78,32.34,0,0,0,0,0,0,3.4-.29,6.77-.76,10.12-1.34v-80.73c-3.32.01-6.65.03-9.97.04Z"
            style="fill:#019382; stroke-width:0px;" />
        <path
            d="M744.39,357.37c-12.73-4.37-17.23-13.61-16.8-27.72.49-16.19,8.12-28.99,14.63-42.5,0,0,0,0,0,0-3.66-5.53-7.32-11.06-10.98-16.59-3.91-4.26-4.69-11.45-11.1-13.38,0,0,0,0,0,0-4.08,6.62-7.6,13.74-12.38,19.72-6.32,7.9-8.35,16.4-8.17,26.64.5,27.72.13,55.45.1,83.18h0c14.82,1.68,29.64,3.25,44.58,2.23.04-10.53.08-21.06.12-31.58ZM721.86,318.4c5.13.05,3.05,5.3,3.75,8.47-.51,3.17,1.57,8.03-4.06,7.92-4.84-.1-3.71-4.48-3.41-7.32.35-3.32-2.49-9.14,3.72-9.07Z"
            style="fill:#fcfbfc; stroke-width:0px;" />
        <path
            d="M781.25,317.86c-4.23,2.05-6.71,10.73-10.12,8.01-4.95-3.94-2.68-12.09-1.24-18.19,1.03-4.37,4.28-8.09,6.05-12.33,1.25-2.98,4.9-5,3.47-11.46-6.77,10.24-13.1,18.57-17.96,27.79-1.89,3.59,2.85,7.61,4.49,11.47.85,1.99,1.44,4.53-.38,5.99-2.07,1.66-3.51-1.01-5.24-1.84-4.44-2.12-8.26-6.47-15.02-4.54,10.76,6.8,23.13,10.71,25.32,25.5,0,0,0,0,0,0,0,0,0,0,0,0,3.03,13.48,2.23,27.17,2.09,40.83,0,0,0,0,0,0,0,0,0,0,0,0,5.95-7,.76-15.56,2.87-23.1-.16-4.61-.33-9.21-.49-13.82,0,0,0,0,0,0-.62-3.84-1.39-7.66-1.82-11.53-1.14-10.29,5.37-17.83,15.79-18.47h0s0,0,0,0c0-3.68.01-7.36.02-11.03-2.58,2.29-4.87,5.28-7.82,6.72Z"
            style="fill:#94ab21; stroke-width:0px;" />
        <path
            d="M760.38,354.22s0,0,0,0c-5.33,1.05-10.66,2.11-15.99,3.15h0c-.04,10.53-.08,21.06-.12,31.58,5.13,3.37,10.67,1.44,16.07,1.4.01-12.04.03-24.09.04-36.13Z"
            style="fill:#69d2ae; stroke-width:0px;" />
        <path
            d="M770.61,348.25s0,0,0,0c-4.92-.94-7.76,2.15-10.23,5.97h0c-.01,12.05-.03,24.09-.04,36.13,4.24.95,8.32.09,12.36-1.26,0,0,0,0,0,0,.14-13.66.94-27.36-2.09-40.83Z"
            style="fill:#c3f0ea; stroke-width:0px;" />
        <path
            d="M775.09,352.17c.16,4.61.33,9.21.49,13.82,2.09,3.23,1.59,7,1.13,10.35-1.59,11.61,3.53,14.57,13.17,12.45h0c-.26-10.78-.52-21.56-.78-32.34h0c-4.67-1.43-9.34-2.85-14.01-4.28Z"
            style="fill:#c1efe8; stroke-width:0px;" />
        <path
            d="M601.71,261.53c3.07,0,4.24-1.74,4.27-4.7.03-3.6,0-7.21,0-10.81h.05c0-3.96.02-7.93,0-11.89-.02-2.93-1.19-4.76-4.19-4.87-2.82-.11-4.63,1.11-4.73,4.23-.25,7.9-1.44,15.79-.15,23.73.49,3.04,1.91,4.32,4.76,4.31Z"
            style="fill:#51b9cf; stroke-width:0px;" />
        <path
            d="M601.67,321.41c8.65-.19,2.01-10.02,4.25-14,0-4.53-.03-8.13,0-11.74.04-3.43-1.27-5.52-4.71-5.55-3.88-.03-4.12,2.96-4.19,5.95-.08,3.6-.63,7.35.09,10.78,1.08,5.15-3.93,14.75,4.54,14.56Z"
            style="fill:#41b4cc; stroke-width:0px;" />
        <path
            d="M330.63,317.18c.19,2.68-.76,6.63,4.56,6.8,5.54.18,5.69-3.52,5.57-7.69-.11-3.49.53-7.25-4.64-7.52-5.75-.31-5.41,3.74-5.48,8.41Z"
            style="fill:#4fb8ce; stroke-width:0px;" />
        <path
            d="M773.26,340.64c.43,3.86,1.2,7.69,1.82,11.53,0,0,0,0,0,0,4.67,1.43,9.34,2.85,14.01,4.28h0c-.02-11.42-.03-22.85-.05-34.27h0c-10.42.64-16.93,8.18-15.79,18.46Z"
            style="fill:#c0ce52; stroke-width:0px;" />
        <path
            d="M718.14,327.47c-.3,2.84-1.43,7.22,3.41,7.32,5.63.12,3.56-4.75,4.06-7.92-.71-3.18,1.38-8.42-3.75-8.47-6.21-.07-3.38,5.75-3.72,9.07Z"
            style="fill:#198271; stroke-width:0px;" />
    </g>
    <text x="40" y="60" font-size="24" fill="#585858ff" font-family="sans-serif" font-weight="bold">${t.toUpperCase()}</text>
</svg>
