<svg class="tile-svg" xmlns="http://www.w3.org/2000/svg" viewBox="0 0 799 399">
    <g id="c">
        <path
            d="M.15,234.48C.15,158.31.19,82.15.07,5.98.06,1.5.43,0,4.61,0c263.28.18,526.56.18,789.84,0,4.17,0,4.56,1.48,4.55,5.98-.12,72.91-.08,145.83-.08,218.74-2.53,2.67-5.32,1.53-8.08.87-38.72-9.35-76.92-6.32-114.73,7.23-30.53,10.94-61.4,12.92-92.87,6.79-26.88-5.24-53.18-13.78-79.9-19.85-46.56-10.58-92.03-5.87-136.96,12.48-20.65,8.43-40.58,19.29-61.6,26.43-22.61,7.67-45.3,8.62-68.45,5.32-24.61-3.51-47.79-12.39-70.38-24.81-23.94-13.15-48.77-23.07-75.03-26.06-18.36-2.09-36.42.1-54.21,6.31-10.29,3.59-20.29,7.97-29.87,13.85-2.05,1.26-4.16,3.31-6.67,1.21Z"
            style="fill:#f0fafc; stroke-width:0px;" />
        <path
            d="M.15,306.08v-19.53c10.19-4.59,20.75-7.61,31.21-10.98,25.45-8.21,51.42-10.82,77.56-9.16,16.06,1.02,31.83,5.53,47.26,11.2,17.72,6.52,35.6,12.35,53.46,18.18,11.52,3.76,23.62,4.39,35.5,5.97,24.85,3.29,49.52,1.24,73.72-6.44,17.47-5.55,34.35-13.69,51.57-20.36,17.05-6.61,34.49-10.75,52.16-13.69,33.32-5.54,65.28.74,96.58,15.41,20.81,9.75,42.18,16.42,64.83,15.76,12.44-.37,24.09-4.44,35.62-8.97,14.91-5.86,29.57-12.68,44.91-16.75,36.97-9.83,73.95-12.41,111.12-1.38,8.06,2.39,16.03,4.57,23.24,9.84v17.9c-2.82,4.42-6.82,6.66-10.78,8.88-19.07,10.68-39.13,13.31-59.83,12-16.42-1.04-32.3-5.15-48.06-10.51-30.55-10.38-60.7-7.05-90.65,4.1-19.78,7.37-39.41,15.41-59.66,20.76-13.43,3.55-26.99,5.25-40.68,6.46-32.14,2.86-63.25-3.52-93.77-15.26-35.67-13.72-71.46-13.7-107.53-2.93-26.45,7.9-53.14,14.28-80.24,17.47-19.53,2.3-38.5-2.12-57.35-8.16-16.06-5.14-31.13-13.74-46.84-20.08-32.03-12.92-64-14.01-95.98.19-2.44,1.08-4.92,2.54-7.41.09Z"
            style="fill:#7cd5f5; stroke-width:0px;" />
        <path
            d="M798.92,369.54c0,8.68-.13,17.36.07,26.03.06,2.83-.41,3.81-2.69,3.3-1.05-.24-2.17-.04-3.26-.04-262.34,0-524.68-.02-787.02.15-4.89,0-6.22-1.34-6.01-7.48.44-12.72.13-25.49.13-38.23,1.58-2.49,3.74-3.5,6.18-4.04,27.23-6.08,53.46-3.4,78.81,11.73,15.43,9.21,31.15,18.18,48.41,21.06,24.95,4.16,49.35.71,73.37-8.45,22.83-8.71,45.72-17.48,69.44-21.54,29.89-5.12,59.56-5.97,88.74,7.16,23.87,10.73,47.57,22.67,73.09,26.4,18.1,2.64,36.22,3.44,54.5,3.52,40.01.18,76.24-16.97,112.68-34.04,20.36-9.53,40.83-18.07,62.65-21.56,21.19-3.39,41.09,1.08,60.54,10.65,21.05,10.36,42.11,20.53,64.95,22.99,1.99.21,3.88.65,5.41,2.41Z"
            style="fill:#04489a; stroke-width:0px;" />
        <path
            d="M.15,306.08c7.46-2.66,14.89-5.5,22.4-7.93,22.51-7.31,44.94-5.89,67.5.37,17.62,4.89,33.82,14.66,50.9,21.34,21.03,8.22,42.46,14.17,64.55,11.84,22.18-2.34,44.16-6.9,65.92-13.16,22.76-6.54,45.62-12.61,69.22-12.5,22.39.1,43.72,7.01,65.01,14.45,16.69,5.84,33.61,10.19,50.94,11.61,26.71,2.2,53.11-.19,79.22-7.98,17.49-5.22,34.65-11.79,51.77-18.45,33.81-13.14,67.47-14.46,101.66-2.11,28.34,10.23,57.17,11.98,85.86,2.05,8.23-2.85,15.89-8.29,23.82-12.54v47.19c-3.68,2.62-6.8-.41-9.85-1.91-23.54-11.59-48.17-17.48-73.22-17.72-26.48-.25-52.91,2.91-78.73,11.63-19.52,6.6-38.42,15.63-57.89,22.4-16.57,5.76-33.51,8.76-50.63,11.1-29.33,4.02-57.56-2.41-85.75-11.01-26.83-8.18-53.86-15.6-81.56-16.53-24.83-.83-49.42,2.95-73.64,10.16-24.09,7.18-48.43,12.88-73.12,15.24-29.42,2.81-57.42-5.49-84.53-19.35-9.26-4.73-18.31-10.01-27.43-15.12-22.16-12.41-44.84-16.68-68.54-8.04-10.13,3.69-19.56,8.91-27.24,18.31-1.8,2.2-3.55,4.98-6.65,4.09,0-12.48,0-24.95,0-37.43Z"
            style="fill:#27a9f1; stroke-width:0px;" />
        <path
            d="M.15,234.48c18.81-12.07,38.65-20.13,59.65-23.37,16.47-2.54,32.86-1.21,49.13,2.69,23.28,5.59,45.07,16.42,66.77,28.08,18.21,9.78,37.22,16.92,57.3,18.87,10.99,1.07,21.93,3.45,32.99,2.91,18.28-.89,36-5.45,53.2-13.23,30.45-13.77,60.66-28.8,92.91-34.87,24.92-4.69,49.88-5.34,75.07-1.19,26.88,4.43,52.93,13.53,79.54,19.25,19.17,4.12,38.44,8.49,57.98,7.15,18.34-1.26,36.41-4.82,54.13-11.61,16.32-6.25,33.24-9.87,50.33-10.8,23.41-1.29,46.79-.67,69.75,6.36v22.78c-3.61,4.66-8.18,5.65-13.13,5.77-18.39.45-36.26-5.07-54.41-7.31-19.12-2.35-37.77-1.08-55.64,8.55-35.42,19.1-70.6,16-106-.65-18.48-8.7-37.18-17.05-57.16-19.12-17.38-1.8-34.68-1.19-52.04,1.12-26.5,3.52-51.29,14.08-75.37,27.39-31.35,17.33-64.08,23.47-98.01,20.73-23.99-1.93-47.17-9.09-70.02-18.28-20.71-8.33-41.7-16.1-63.72-15.36-14.7.49-29.35,1.81-43.95,5.76-27.62,7.46-55.51,13.79-84.03,8.34-9.12-1.74-17.69-5.31-25.28-12.07v-17.9Z"
            style="fill:#b8e9f8; stroke-width:0px;" />
        <path
            d="M.15,343.5c6.3-6.5,11.88-13.84,19.62-18.34,22.57-13.14,45.49-14.14,69.02-5.34,14.57,5.45,27.77,14.98,41.79,22.12,27.07,13.77,54.95,21.97,84.27,19.22,18.09-1.7,36.04-5.5,53.85-10.1,23.92-6.17,47.62-13.1,72.3-14.66,24.74-1.56,48.74,2.04,72.8,7.81,23.36,5.6,46.2,14.21,69.84,18.3,18.2,3.15,36.28,1.99,54.44-.32,30.27-3.84,58.43-17.41,87.19-28.39,25.13-9.6,50.98-13.99,77.38-15.16,26.78-1.19,52.59,3.41,77.96,13.35,6.19,2.43,12.21,5.48,18.31,8.25v29.29c-14.92.1-28.95-4.91-43.12-10.26-17.73-6.69-34.18-17.84-52.55-22.27-11.18-2.7-22.29-2.72-33.46-1.32-12.94,1.62-25.66,4.9-37.93,10.31-18.93,8.34-37.8,16.88-56.61,25.6-18.93,8.78-38.39,16.19-58.36,18.22-15.81,1.61-31.81,3.92-47.98,1.39-11.08-1.73-22.43-1.21-33.56-3.71-17.18-3.86-33.8-9.69-50.26-17.18-21.58-9.82-43.23-19.2-67.07-19.15-24.2.05-47.7,3.56-71.05,10.92-21.77,6.87-43.05,16.04-65.07,21.73-14.84,3.83-29.96,3.12-44.77,1.33-20.13-2.45-38.25-13.55-56.39-24.25-9.48-5.59-19.69-9.24-30.35-10.92-16.97-2.68-33.64-1.4-50.23,3.3v-9.76Z"
            style="fill:#066dc8; stroke-width:0px;" />
        <path
            d="M.15,252.38c7.84,1.05,14.26,7.32,22.02,8.97,17.05,3.63,33.96,2.24,51.06.22,22.58-2.66,44.27-11.1,67.08-13.13,26.86-2.4,51.72,5.2,76.71,14.62,20.05,7.56,40.11,14.64,61.13,17.28,11.74,1.47,23.4,1.38,35.08,1.21,19.56-.29,38.52-4.76,56.79-13.94,24.6-12.35,49.19-24.94,75.19-32.06,9.22-2.52,18.79-3.55,28.25-4.18,29.01-1.92,57.4,1.39,84.86,14.77,17.47,8.51,35.41,16.11,54.15,18.77,16.9,2.4,33.86.41,49.87-7.28,20.37-9.79,40.89-17.97,63.11-14.95,14.58,1.98,29.16,4.16,43.66,6.93,10.15,1.93,20.03,1.84,29.83-2.11v27.66c-4.17-.07-7.91-1.84-11.8-3.67-8.66-4.07-17.88-5.83-27-7.49-14.35-2.62-28.82-4.72-43.35-3.42-26.1,2.35-51.88,6.53-76.89,17.27-14.83,6.37-29.64,13.88-45.34,16.1-13.75,1.94-27.59,1.26-41.36-2.28-25.6-6.57-49.31-21.14-75.05-26.97-17.21-3.9-34.43-2.77-51.77-1.34-12.6,1.04-24.97,3.96-37.02,7.6-18.54,5.6-36.63,13.63-54.76,21.24-16.31,6.85-33.05,10.13-50.09,12.42-22.42,3.01-44.39-.98-66.39-4.84-20.38-3.58-39.9-11.75-59.56-18.89-26.37-9.58-53.11-14.27-80.5-12.1-11.18.89-22.55,1.83-33.36,5.15-11.03,3.39-22.43,5.52-32.97,11.16-3.84,2.05-7.7,1.08-11.55,1.43v-34.17Z"
            style="fill:#93def3; stroke-width:0px;" />
    </g>
    <text x="40" y="60" font-size="24" fill="#585858ff" font-family="sans-serif" font-weight="bold">${t.toUpperCase()}</text>
</svg>
